<svg xmlns="http://www.w3.org/2000/svg" height="3333.333" width="5333.333"><defs><clipPath id="a" clipPathUnits="userSpaceOnUse"><path d="M4625.63 19192.3c-416.14 0-753.49 337.3-753.49 753.5 0 416.1 337.35 753.5 753.49 753.5 416.15 0 753.5-337.4 753.5-753.5 0-416.2-337.35-753.5-753.5-753.5m0 2175.8c-785.55 0-1422.36-636.8-1422.36-1422.3 0-785.6 636.81-1422.4 1422.36-1422.4 785.56 0 1422.37 636.8 1422.37 1422.4 0 785.5-636.81 1422.3-1422.37 1422.3"/></clipPath></defs><path d="M5333.338 3333.333H0V-.003h5333.338v3333.336" fill="#fff"/><path d="M898.978 461.306c687.503-255.233 1386.263-29.583 1860.17 461.882 237.015 245.808 604.309 160.88 978.242 75.947 373.683-84.878 754.05-169.754 1017.711 75.503 359.97 334.855 195.063 1195.774-298.494 1568.67-670.922 506.839-3170.286 522.052-3584.986 348.131-708.642-297.2-4.522-847.573-335.307-1375.16C146.062 993.858 595.159 574.096 898.978 461.307" fill="#e7f3fe"/><path d="M4768.867 2844.92c-344.135-16.826-1514.852 11.669-1870.899 22.787-356.053 11.109-769.346-14.667-984.024-52.559-214.68-37.906-1455.634 3.225-1399.32 105.12 56.314 101.893 552.9 45.585 1116.04 86.531 563.131 40.961 1829.642-5.12 2115.331 0 285.69 5.123 547.649-10.239 915.824-30.72 368.144-20.465 306.519-121.41 107.048-131.158" fill="#cce2ff"/><path d="M3760.783 888.276l-35.01-54.083a274.902 274.902 0 01-31.111 1.778 271.445 271.445 0 01-45.307-3.802l-37.777 52.176a327.559 327.559 0 01-53.455-18.943l3.48-64.319c-22.369-12.617-42.763-28.345-60.59-46.566l-5.876 1.9V359.27l16.147 6.246a270.853 270.853 0 0162.986-43.332l-.099-64.418a327.147 327.147 0 0154.394-16.049l34.987 54.073a275.564 275.564 0 0131.11-1.778c15.432 0 30.567 1.309 45.307 3.778l37.802-52.147a326.577 326.577 0 0153.43 18.938l-3.481 64.319c22.37 12.617 42.764 28.345 60.615 46.567l61.209-19.975a330.888 330.888 0 0132.147 46.74l-40.592 49.948c10.519 22.889 17.901 47.53 21.679 73.332l61.208 19.802c.37 6.518.593 13.061.593 19.678 0 12.518-.716 24.888-2.074 37.036l-62.172 16.543c-5.11 25.505-13.826 49.702-25.53 72.097l37.876 52.023c-10.222 15.975-21.827 31.011-34.592 44.962l-60.048-23.185a270.853 270.853 0 01-62.985 43.332l.074 64.41a326.872 326.872 0 01-54.345 16.067m-66.121-452.689c-71.48 0-129.404 57.95-129.404 129.404 0 71.455 57.924 129.404 129.404 129.404 71.455 0 129.404-57.95 129.404-129.404 0-71.455-57.95-129.404-129.404-129.404" fill="#cee3ff"/><path d="M3871.148 714.4a6.689 6.689 0 01-4.267-1.543c-2.82-2.339-3.206-6.557-.844-9.378 32.23-38.787 49.997-87.964 49.997-138.492 0-24.203-3.954-47.948-11.764-70.608a6.64 6.64 0 014.146-8.461c3.472-1.205 7.28.65 8.462 4.122 8.292 24.058 12.487 49.274 12.487 74.947 0 53.637-18.851 105.852-53.083 147.002a6.675 6.675 0 01-5.134 2.41M3852.432 408.981a6.704 6.704 0 01-4.594-1.8c-21.667-20.412-46.767-35.874-74.591-45.986-3.457-1.255-5.257-5.067-4.002-8.524 1.255-3.481 5.091-5.257 8.549-4.002 29.552 10.727 56.192 27.137 79.208 48.804 2.676 2.51 2.794 6.725.284 9.424a6.73 6.73 0 01-4.854 2.084M3644.488 355.036c-3 0-5.706-2-6.48-5.024a6.687 6.687 0 014.843-8.094c18.371-4.639 37.356-6.98 56.477-6.98a6.656 6.656 0 016.662 6.661 6.656 6.656 0 01-6.662 6.662c-18.03 0-35.923 2.205-53.225 6.593a6.636 6.636 0 01-1.615.182" fill="#fff"/><path d="M3473.54 1055.257v-291.79l21.593-7.033v294.813c-7.205 1.351-14.431 2.702-21.593 4.01m21.593-696.003l-21.593-8.32v-78.072h-1939.9v83.283a1611.297 1611.297 0 00-52.947-.858c-15.827 0-31.626.215-47.506.686V242.65h2061.946v116.604" fill="#cee3ff"/><path d="M3495.133 1481.147H1433.187V355.973c15.88-.471 31.679-.686 47.506-.686 17.666 0 35.36.279 52.948.858v1053.694h1939.9v-354.582a4682.575 4682.575 0 0021.592-4.01v429.9" fill="#c2ddff"/><path d="M3473.54 763.467V350.934l21.593 8.32v397.18l-21.593 7.033" fill="#b6d5ff"/><path d="M3473.53 1409.842H1533.638V272.876H3473.53v1136.966" fill="#fff"/><path d="M3187.829 860.466c92.445-87.99 250.452-85.995 247.105 48.007-3.325 134.003 7.735 146.592 45.768 216.88 132.008 243.905-157.319 229.558-278.001 237.56-120.66 7.998-110.664-219.336-89.32-345.327 21.321-126.002 47.386-131.365 74.448-157.12" fill="#303c60"/><path d="M3230.93 1628.772c-29.642 248.893-83.49 432.88-89.49 550.88-6.02 117.987-30.018 582.588-30.018 582.588s66.015-4.613 72.015-14.613 123.996-271.988 117.997-433.987c-6-161.988 117.85-408.296 117.85-408.296l-29.872-241.666-158.483-34.906" fill="#4476bd"/><path d="M3259.392 1737.12l-46.347 19.398c-12.597 78.921-26.588 149.88-38.852 212.828 73.748 47.68 111.85 206.56 128.173 303.692 8.329-108.693 59.61-240.026 91.424-312.653l-134.398-223.266" fill="#3e6bab"/><path d="M3473.405 1603.682s99.902 127.428 96.766 271.988c-4.77 220.065-28.774 282.892 13.007 513.638 16.297 90.12-36.017 384.932-36.017 384.932s-44.673 3.493-68.677-8.453c2.01-21.652-28.884-374.025-89.016-536-29.127-78.44-70.046-298.118-92.04-424.117-22.017-125.988-26.014-151.988-17.998-151.988 7.994 0 193.975-50 193.975-50" fill="#4476bd"/><path d="M2904.28 1249.795s4.444-65.937-2.658-86.298c-7.12-20.38-68.453-38.153-68.453-38.153s-2.677 94.221 3.55 105.785c6.229 11.545 42.668 44.434 42.668 44.434l24.894-25.768" fill="#f09959"/><path d="M3249.148 1201.756c-140.428 151.147-186.272 214.747-196.93 214.747-33.33-58.84-144.04-183.292-144.04-183.292l-47.221 30.356s109.092 285.03 178.428 287.976c69.335 2.948 210.262-98.293 212.038-109.919 1.796-11.627-2.275-239.868-2.275-239.868" fill="#a2dff2"/><path d="M3102.693 1536.77c68.697-27.974 147.413-86.48 148.73-95.146 1.796-11.627-2.275-239.868-2.275-239.868-30.617 32.952-57.32 62.17-80.533 87.737-25.147 93.677-23.51 195.69-65.922 247.277" fill="#96cfe0"/><path d="M3391.815 1102.247s134.4 67.358 163.716 186.593c29.339 119.231-57.468 266.552-68.134 345.164-10.667 78.614-255.978 92.441-255.978 8.293 0-80.679-61.47-251.917-57.996-295.545 8.138-102.34 157.735-227.725 157.735-227.725l60.657-16.78" fill="#a2dff2"/><path d="M3352.775 947.769l57.685 177.909s-61.598 47.537-167.03 161.896c4.102-76.09 67.854-159.05 67.854-159.05L3267.64 960.51l85.136-12.742" fill="#f09959"/><path d="M3379.685 1030.752l-26.913-82.979-85.114 12.73 43.646 168.01s-4.271 6.78-10.554 17.459c41.116-30.5 66.329-68.485 78.935-115.22" fill="#e38540"/><path d="M3320.988 987.927c-15.557 56.619-75.82 87.773-118.642 76.003-42.822-11.77-51.972-62.002-36.415-118.621 15.557-56.619 62.903-92.973 105.705-81.203 42.822 11.77 64.909 67.202 49.352 123.82" fill="#f09959"/><path d="M3220.706 1562.521c18.673 118.388-50.702 371.653-50.702 371.653s41.388 9.4 165.375-2.599c124.01-12.001 178.666-135.76 197.339-139.213 18.673-3.454 28.25 115.173 37.455 124.545 9.205 9.374 10.61-149.8-13.466-212.387-42.662-110.918-34.314-157.972-18.365-225.172 28.36-119.506-317.636 83.173-317.636 83.173" fill="#a2dff2"/><path d="M3114.444 2703.972c11.178 45.373-10.883 81.361-40.389 107.6-24.006 21.333-97.77 30.4-94.215 41.067 3.556 10.667 90.66 14.04 119.989 9.6 29.329-4.453 37.344-18.667 73.844-18.654 23.946.014 28.386-19.452 17.719-43.506-10.667-24.067-14.4-37.36-4.754-58.934 9.626-21.572-72.194-37.173-72.194-37.173M3549.738 2703.975c-1.785 47.107-7.25 82.2 4.305 104.039 44.632 37.332 81.726 79.746 67.562 82.666-67.562 13.96-93.325-26.533-131.556-38.04-46.909-14.133 4.438-73.066-13.941-148.665-10.216-42.041 70.841-31.961 70.841-31.961l2.789 31.961" fill="#4476bd"/><path d="M3566.81 1743.142c-2.692-14.772-6.018-28.079-10.088-38.626-42.649-110.921-34.312-157.975-18.36-225.175 1.27-5.307 1.773-9.959 1.598-14.04 3.61-11.972 6.958-24.118 9.913-36.346l-14.487-130.723-104.4-124c-78.25 114.665-25.449 257.335-37.2 336.002-11.729 78.67-142.847 178.975-142.847 178.975l4.267 27.907c5.864 38.28 41.357 64.88 79.717 59.559 54.027-7.506 124.926-22.572 156.48-51.84 30.504-28.332 57.55-6.413 75.406 18.307" fill="#96cfe0"/><path d="M3281.588 1684.708s-57.875 16.2-64.795 19.812c-6.92 3.626-10.755 22.76-10.755 22.76s-33.138 28.773-20.434 38.96c12.683 10.187 35.35 35.975 65.322 23.974 18.385-7.36 32.65-74.947 44.704-75.493 12.075-.533-14.042-30.013-14.042-30.013" fill="#f09959"/><path d="M3445.524 1159.129c61.931 1.756 118.105 113.332 137.689 210.127 19.562 96.813 40.168 234.426 40.168 234.426s-102.677 81.028-204.11 104.707c-88.494 20.667-133.687 28.734-133.687 28.734l-17.939-50.52 211.735-124.36s-77.847-146.668-85.606-257.336c-7.735-110.667 4.669-147.11 51.75-145.778" fill="#a2dff2"/><path d="M2869.256 1201.23l-154.429 30.98-19.662-98.065 154.429-30.998 19.662 98.082" fill="#f5dc95"/><path d="M2867.144 1241.786c2.112-40.557-17.972-95.882-29.52-95.812-11.565.088 3.538 36.262-2.676 60.255-3.38 13.008 32.196 35.557 32.196 35.557" fill="#f09959"/><path d="M3177.277 881.797c3.449 111.11 133.224 102.596 168.767 95.742 35.564-6.854-43.28 234.407 24.442 248.326 49.746 10.223 38.538-67.575 93.802-62.381 24.442 2.306 48.992 40.092 48.992 40.092s-3.664-23.276-22.33-40.092c-18.665-16.812-67.614-119.904-80.482-193.683-12.846-73.779-99.967-121.5-125.745-122.986-25.778-1.466-88.888 27.869-88.888 27.869l-18.558 7.113" fill="#303c60"/><path d="M3369.347 1251.011c-1.748 0-3.517-.185-5.349-.573-21.67-4.614-32.18-27.4-33.064-71.69-.78-37.971 5.496-86.704 12.13-138.301 2.696-20.85 5.476-42.394 7.771-63.264a3.234 3.234 0 013.58-2.886c1.77.19 3.075 1.812 2.865 3.58-2.296 20.934-5.076 42.52-7.75 63.391-12.868 99.825-25.02 194.12 15.816 202.816 1.263.27 2.548.403 3.812.403 23.44.004 44.563-45.711 56.883-90.232.463-1.727 2.253-2.738 4.001-2.253a3.216 3.216 0 012.254 3.98c-8.13 29.4-29.99 95.02-62.949 95.03" fill="#303c60"/><path d="M3360.665 1276.836c-7.379 0-13.824-2.86-19.188-8.536-44.25-46.767-.488-281.402 1.378-291.367a3.255 3.255 0 013.816-2.587c1.76.318 2.905 2.014 2.587 3.795-.467 2.396-45.035 241.32-3.053 285.693 4.876 5.159 10.665 7.218 17.662 6.29 22.962-3.035 36.214-34.205 47.918-61.7 11.364-26.674 22.03-51.884 41.048-51.226a3.25 3.25 0 013.138 3.37c-.064 1.803-1.569 3.245-3.371 3.139-.149-.021-.297-.021-.467-.021-14.248 0-24.022 22.983-34.37 47.282-12.36 29.094-26.418 62.077-53.07 65.596-1.356.18-2.692.272-4.028.272" fill="#303c60"/><path d="M3350.868 998.867c-9.133 11.793-23.462 15.978-31.997 9.36s-8.04-21.544 1.113-33.337c9.133-11.793 23.462-15.978 31.997-9.36 8.536 6.638 8.04 21.544-1.113 33.337" fill="#f09959"/><path d="M2342.513 1410.31c31.68 63.36 5.447 136.32-56.865 162.1-62.719 25.942-131.308 11.216-162.989-52.144-31.68-63.346-8.156-139.32 52.553-169.69 60.71-30.354 135.606-3.612 167.3 59.734" fill="#303c60"/><path d="M2171.712 1580.02c-6.993 0-20.778-2.46-38.294-18.023-14.387-12.743-24.71-32.304-29.068-55.061-5.522-28.734-1.925-61.747 10.67-98.169.575-1.685 2.42-2.58 4.131-1.992a3.232 3.232 0 011.993 4.118c-12.208 35.326-15.711 67.215-10.43 94.812 4.119 21.367 13.706 39.631 27.01 51.438 22.222 19.722 37.117 16.138 37.277 16.098 1.725-.454 3.503.562 3.971 2.273.468 1.725-.521 3.504-2.233 3.985-.213.067-1.978.521-5.027.521" fill="#303c60"/><path d="M2268.6 1656.863c36.067 8.087 81.586 108.282 103.882 172.482 22.475 64.747 60.605 145.068 85.564 170.013 24.944 24.961 188.944 82.815 188.944 82.815s-405.185.786-396.887-.015c8.299-.799 18.497-425.295 18.497-425.295" fill="#a8ceff"/><path d="M2483.7 2049.991c-22.182-3.173-102.204 7.134-68.136-7.134 34.068-14.252 29.313-32.48 29.313-32.48s-48.33 40.402-57.036 5.068c-7.51-30.455-10.39-138.013-38.917-245.827-23.551-53.446-54.392-106.925-80.336-112.75 0 0-.897 37.957-2.409 91.183 9.95 117.781 26.842 290.82 31.124 334.446 53.7.08 143.576 0 218.78-.107l50.015-2.386s-60.217-26.84-82.398-30.013" fill="#93bbf0"/><path d="M2136.02 1634.676s-114.71 64.07-141.44 77.719c-26.732 13.618 74.91 413.69 97.516 430.836 22.607 17.146 221.635 2.947 244.284-18.653 22.665-21.6-17.396-87.893 2.23-220.626 19.595-132.74-59.816-247.335-70.02-247.074-10.203.246-76.792-22.202-76.792-22.202h-55.777" fill="#a8ceff"/><path d="M2092.11 2143.227c22.596 17.148 165.005 17.521 225.634-1.333 6.838-2.134 37.905-14.507 38.627-26.146-7.3-1.373-36.357 2.12-48.139-.6-41.012-9.413-63.593-60.201-63.593-60.201s-22.58-8.133-73.077-29.52c-50.51-21.386-29.707-86.16-30.893-114.678-1.2-28.521-49.917-121.808-141.425-192.528l-8.385 3.773c-6.534 65.01 80.32 405.367 101.252 421.233" fill="#93bbf0"/><path d="M2880.147 1829.347H2603.96l-125.793 267.68h304.227l113.865-242.306c5.555-11.814-3.062-25.374-16.11-25.374" fill="#75a1de"/><path d="M2494.633 2100.823h-166.195c-10.308 0-18.667-8.36-18.667-18.667 0-10.306 8.36-18.666 18.667-18.666h154.293l104.3-224.495c4.35-9.359 15.462-13.413 24.803-9.066 9.342 4.347 13.4 15.44 9.052 24.787l-109.326 235.308a18.665 18.665 0 01-16.927 10.799" fill="#3e6bab"/><path d="M2206.41 2043.659c72.103 13.467 89.815 30.013 129.123 36.346 44.55 7.187 39.249 17.027 6.162 17.027-33.073 0-116.245 1.294-144.777-5.053-28.546-6.333 9.491-48.32 9.491-48.32" fill="#f09959"/><path d="M1985.577 1719.886c-55.249 176.678-133.588 377.139-121.103 377.139 12.471 0 329.76 12.826 342.232 2.147 12.485-10.68 8.918-51.681 7.134-57.028-1.783-5.346-180.38-37.04-180.38-37.04s23.512-45.845 32.443-135.415c8.904-89.571-69.843-183.308-80.326-149.803" fill="#a8ceff"/><path d="M2178.037 1481.146l-44.505 162.656s75.206 117.391 95.885 106.969c20.678-10.436-11.555-95.43-11.555-106.97 0-11.554 32.233-130.726 32.233-130.726l-72.058-31.93" fill="#f09959"/><path d="M2219.409 1652.098c-.967-3.865-1.547-6.75-1.547-8.296 0-11.555 32.233-130.727 32.233-130.727l-72.058-31.93-14.729 53.824c12.866 55.603 36.084 92.626 56.1 117.129" fill="#e38540"/><path d="M2344.594 1478.452c8.474 47.162 2.887 109.814-38.992 125.737-41.893 15.923-92.332-14.551-112.687-68.051-20.355-53.529-2.902-109.815 38.992-125.752 41.878-15.923 102.553 11.722 112.687 68.066" fill="#f09959"/><path d="M2202.848 1504.991c5.867 16.478.772 33.362-11.383 37.698-12.168 4.322-26.789-5.542-32.656-22.033-5.867-16.478-.772-33.361 11.382-37.684 12.169-4.323 26.79 5.529 32.657 22.02" fill="#f09959"/><path d="M2345.07 1419.21c-14.272 110.678-148.732 96.406-148.732 96.406s-27.738-36.442-40.212-17.322c-12.487 19.12 17.308-112.218 94.465-116.347 25.364-1.366 94.48 37.262 94.48 37.262" fill="#303c60"/><path d="M2208.39 1372.406c0 37.746-32.612 68.338-72.837 68.338-40.212 0-72.836-30.592-72.836-68.338 0-37.733 32.624-68.325 72.836-68.325 40.225 0 72.836 30.592 72.836 68.325" fill="#303c60"/><path d="M1990.493 2901.253h16.654l107.546-498.28h-36.64l-87.56 498.28M2508.287 2901.254h-16.65l-125.168-515.892h36.64l105.178 515.892" fill="#2e5b9a"/><path d="M2180.509 2421.643c-66.71 0-108.987-11.972-135.962-38.253-33.416-32.573-40.34-83.026-40.446-148.759-.076-51.734-1.316-85.426-4.113-112.667-1.043-10.253 6.41-19.425 16.662-20.479 10.252-1.054 19.415 6.4 20.473 16.654 2.934 28.559 4.234 63.372 4.31 116.426.105 66.626 8.558 102 29.167 122.08 21.168 20.613 59.407 29.106 123.97 27.492 62.372-1.546 105.298-10.266 139.787-17.28 45.361-9.213 78.142-15.88 117.001 2.694 9.314 4.453 13.245 15.586 8.8 24.892-4.445 9.307-15.589 13.24-24.888 8.787-27.58-13.173-51-8.413-93.473.213-35.941 7.308-80.652 16.387-146.304 18.014-5.11.12-10.116.186-14.984.186" fill="#2e5b9a"/><path d="M2028.947 2099.173l102.133 4.254-27.187 281.946s-76.133-48.586-74.946-100.88c1.2-52.28 0-185.32 0-185.32" fill="#2e5b9a"/><path d="M2533.07 2125.442c86.346-13.107 115.694-8.972 168.552 89.387 52.839 98.346 123.18 275.425 163.636 298.306 60.915 34.44 81.116 118.879 106.121 115.092 25.024-3.8 41.122 7.254 13.898 29.881-27.223 22.612-71.172 41.88-86.198 37.867-15.025-4.014-26.706-68.96-65.942-90.04-39.255-21.094-27.464-38.414-24.895-57.066 2.588-18.654-114.586-104.521-202.91-211.32-53.966-65.267-81.762-108.334-85.883-147.373-4.122-39.04 13.62-64.734 13.62-64.734" fill="#f09959"/><path d="M2747.137 2482.083c-20.056-50.88-40.18-134.852-59.072-211.84-26.898-109.492-55.095-135.479-72.943-147.158-21.589-5.414-47.156-2.934-82.043 2.36 0 0-17.747 25.693-13.634 64.732 4.112 39.04 31.92 82.106 85.886 147.373 46.499 56.227 100.986 106.653 141.806 144.533" fill="#e38540"/><path d="M2559.382 2211.996s-22.971 173.36-44.373 190.988c-15.293 12.599-26.127 13.439-36.836-38.267-10.693-51.707 16.628-244.682 16.628-244.682l64.581 91.96" fill="#2e5b9a"/><path d="M2541.07 2305.81l-212.633 35.733 120.054-172.147 91.353-18.6 54.79 12.6-53.564 142.415" fill="#f09959"/><path d="M2808.259 2548.865c-6.886 27.786-6.072 48.32 5.913 58.613 11.984 10.28 57.232 86.76 57.232 86.76l14.109-2.145-32.661-69.975-44.593-73.253" fill="#2e5b9a"/><path d="M2899.08 2695.975c15.025 4.012 58.974-15.255 86.197-37.867 27.224-22.627 11.126-33.68-13.898-29.881-1.404.214-2.79.12-4.177-.213-12.493 27.908-53.596 48.84-66.848 19.36-13.14-29.212-69.435-87.359-92.112-99.799.037.453.056.893 0 1.294-2.569 18.652-14.36 35.972 24.895 57.066 39.236 21.08 50.917 86.026 65.942 90.04" fill="#2e5b9a"/><path d="M2099.07 2132.381c-75.432 135.388-23.902 221.429 67.799 230.202 91.684 8.76 236.438-7.974 320.814-78.094 84.377-70.107 153.634-144.253 143.96-155.308-9.674-11.066-532.574 3.2-532.574 3.2" fill="#e38540"/><path d="M2526.893 2233.402c15.441-46.348 33.252-81.907 67.73-82.56 36.259-.667 58.556 18.187 60.101 77.494 1.849 70.625 4.335 304.519 1.076 408.518-2.47 78.734 20.482 103.934 18.533 186-1.462 61.813 64.436 30.586 38.981 62.654-17.508 22.04-69.612 14.826-101.603 10.76-28.53-3.628 14.752-89.094-24.716-111.947-33.857-19.6-34.53-51.44-13.14-75.533 21.39-24.108 2.37-95.4-11.879-145.321-14.265-49.906-36.394-103.905-50.91-221.92-4.151-33.653 6.384-79.839 15.827-108.145" fill="#f09959"/><path d="M2690.77 2860.267c-10.92 3.335-24.385 7.014-36.108 7.401-23.782.787-30.916-25.36-32.49-60.866-1.374-31.015-23.9-79.854-47.01-99.653a23.39 23.39 0 01-1.324 1.64c-21.387 24.093-20.717 55.933 13.147 75.533 39.474 22.852-3.802 108.32 24.72 111.946 31.987 4.066 84.106 11.28 101.607-10.76 16.547-20.84-3.986-22.494-22.542-25.24" fill="#2e5b9a"/><path d="M2579.19 2699.947s-34.661 36.202-31.486 51.254c3.176 15.053 13.846 53.08 15.64 82.4 1.779 29.307 3.366 62.96 3.366 62.96s12.48 0 13.465-3.547c1-3.533 7.939-119.147 7.939-119.147l-8.924-73.92" fill="#2e5b9a"/><path d="M2062.74 2120.038s-44.741 189.906 11.779 242.547c56.536 52.64 291.305 5.293 346.613 2.132 37.437-2.132 73.677 43.562 73.677 43.562s-26.154-105.961-8.33-191.522c17.825-85.56 46.606-91.32 46.606-91.32l-38.276-5.399h-432.07" fill="#75a1de"/><path d="M2052.598 2070.387c19.131 40.6-20.598 110.72-6.684 130.92 13.943 20.2 93.66 2.827 145.893-39.213 52.249-42.053 151.111-51.293 151.111-51.293l-290.32-40.414" fill="#a8ceff"/><path d="M2133.533 2416.416c158.048 5.934 324.42 3.133 324.42-20.427 0-23.546-7.133-40.187-129.533-30.679-122.4 9.506-205.593 22.586-242.432 14.267-36.84-8.321 47.545 36.839 47.545 36.839M3819.055 2140.054H1592.09c-9.506 0-17.214-7.705-17.214-17.211v-8.6c0-9.508 7.708-17.214 17.214-17.214h2226.965c9.508 0 17.204 7.706 17.204 17.214v8.6c0 9.506-7.696 17.211-17.204 17.211" fill="#2e5b9a"/><path d="M4114.963 1520.359c15.305 53.987-22.096 109.614-63.297 121.308-41.176 11.679-70.595-25-85.9-78.987-15.304-53.988 5.676-107.215 46.852-118.906 41.202-11.682 87.015 22.6 102.345 76.585M3883.964 2566.429s105.596 163.999 119.846 171.119c14.25 7.132 49.913 8.92 36.533 35.653-13.355 26.734-18.702 131.907-31.186 137.254-12.485 5.345-119.423 17.827-103.382 0 16.04-17.829 25.913-8.908 33.996-41.002 8.108-32.079 19.473-92.69 4.327-105.158-15.17-12.48-107.834-124.787-107.834-124.787l47.7-73.08M3352.56 2636.854s-128.358 211.534-152.122 230.547c-23.764 19.014-102.21 47.547-38.03 52.294 64.179 4.759 95.076-21.388 135.47-33.28 40.416-11.88 90.328-19.014 71.313-49.909-19.015-30.893-11.122-98.345 29.863-141.13 41.007-42.788-46.493-58.522-46.493-58.522" fill="#f09959"/><path d="M4007.53 2146.333s-317.725-8.306-443.68 95.066c-73.68 111.722-251.934 441.32-265.799 477.64 9.509 9.507 62.977 26.668 86.75 24.28 70.121-83.6 162.795-155.88 199.66-221.451 45.429-80.815 59.418-121.216 133.1-128.347 73.68-7.134 240.06-30.894 289.97-30.894 49.908 0 0-216.294 0-216.294" fill="#6791c9"/><path d="M4284.596 2920.267h-16.665l-119.417-498.28h36.643l99.44 498.28M3785.696 2920.266h16.676l137.034-515.893h-36.64l-117.07 515.893" fill="#2e5b9a"/><path d="M4188.54 2124.575l-184.738 31.88s-245.445 2.253-357.65 23.16c-102.103 19.013-117.149 134.998 0 294.718 66.517 90.734 122.776 163.106 237.806 244.708 29.28-21.48 40.454-29.613 48.566-81.306-8.348-11.414-29.883-82.868-36.582-96.854-63.638-133.015-148.55-181.387-149.727-194.468 14.261-23.173 377.72 120.787 449.993 36.108 69.002-80.853-7.667-257.946-7.667-257.946" fill="#75a1de"/><path d="M4196.215 1706.391c-48.662-6.84-98.221 2.412-144.561 35.958-40.482 41.281-86.294 109.348-83.496 221.627 3.562 142.6-22.062 151.76 4.67 190.973 111.522 46.055 302.24 243.907 257.324 31.788-32.512-153.586 71.331-268.066-12.43-438.44-6.834-13.867-15.358-27.32-21.507-41.906" fill="#f37168"/><path d="M3968.142 2017.638c-2.175 74.348-12.662 96.241-4.635 119.548 45.444 4.64 128.614 22.838 149.406 51.932 23.745 33.269 47.541 38.028 36.433 13.468-11.083-24.56-40.394-59.426 4.764-179.055 45.159-119.625 66.547-200.44 22.165-283.625l-208.133 277.732" fill="#d54a41"/><path d="M4196.207 1706.39c-29.966-70.922-37.329-150.6-37.329-150.6l-78.415 23.174s44.563 99.813 1.777 135.465c-9.088 7.574-19.643 16.775-30.584 27.919 46.339-33.547 95.895-42.799 144.55-35.959" fill="#f09959"/><path d="M4161.25 1574.67c-4.65-4.134-10.449-9.295-16.555-14.693l-63.973 18.906-.153.347c1.558 3.534 17.858 41.56 20.004 78.132 19.06-11.573 39.932-30.425 63.794-63.373a589.265 589.265 0 01-3.117-19.32" fill="#e38540"/><path d="M4141.086 1728.677c-80.791 28.252-71.837 113.36-146.178 238.867-38.473 64.946-74.211 63.973-74.211 63.973s-90.21.733-199.36-12.613c-68.354-8.36-72.69 11.986-25.159 28.985 95.861 34.268 195.36 71.162 275.558 62.254 80.224-8.92 217.397-213.572 224.493-266.854 9.78-73.68-14.476-128.838-55.143-114.612" fill="#f09959"/><path d="M4099.498 2440.666a613.49 613.49 0 01-15.416-.198c-65.66-1.63-110.35-10.707-146.286-18.016-42.495-8.626-65.898-13.386-93.478-.199-9.309 4.44-20.441.506-24.884-8.8-4.469-9.305-.529-20.44 8.78-24.894 38.872-18.571 71.662-11.905 117.012-2.692 34.483 7.013 77.427 15.734 139.781 17.278 70.208 1.735 113.179-8.797 135.127-33.13 19.595-21.735 25.386-57.963 18.167-114.028-2.46-18.987-4.892-34.774-7.034-48.694-6.056-39.08-10.049-64.905-5.104-104.706 4.575-37.108 16.898-86.6 45.404-182.64 2.935-9.88 13.327-15.507 23.217-12.574 9.89 2.935 15.523 13.32 12.587 23.201-53.336 179.64-50.639 197.185-39.215 271.013 2.194 14.147 4.68 30.185 7.166 49.64 8.7 67.666-.027 113.358-27.475 143.787-28.268 31.36-74.386 45.652-148.349 45.652" fill="#2e5b9a"/><path d="M3361.266 2815.148c-85.163 41.64-130.976 65.52-158.29 63.239-6.444-.532-11.786-1.2-16.255-1.892-30.39 17.945-78.864 39.16-24.32 43.199 64.168 4.76 95.077-21.385 135.486-33.28 40.41-11.879 90.318-19.013 71.298-49.906-3.637-5.92-6.277-13.187-7.92-21.36M4013.102 2741.025c-2.088 67.427-11.358 134.242-52.593 146.868-10.911 3.346-20.878 3.825-29.701 2.652-6.488 8.013-14.391 8.108-25.03 19.906-16.03 17.829 90.92 5.35 103.397 0 12.477-5.346 17.821-110.52 31.193-137.25 10.986-21.963-11.11-27.095-27.266-32.176" fill="#d54a41"/><path d="M3685.052 2100.828H3414.52a18.665 18.665 0 01-16.928-10.8l-109.34-235.308c-4.34-9.345-.272-20.438 9.067-24.785 9.361-4.347 20.45-.293 24.79 9.066l104.318 224.494h258.625c10.338 0 18.677 8.36 18.677 18.666 0 10.307-8.339 18.667-18.677 18.667" fill="#75a1de"/><path d="M3741.675 2021.25c-54.663-.785-108.88-33.372-135.812-28.613-26.933 4.748-114.874 65.747-103.781 68.135 11.092 2.371 80.797-33.762 83.17-34.321 2.374-.548 17.438 25.04 54.664 34.426 37.249 9.4.282-27.907 115.695 6.961 75.063 22.667-13.936-46.588-13.936-46.588" fill="#f09959"/><path d="M4188.175 1641.67l8.032 64.72s-70.744 4.198-105.935 24.013c-35.217 19.8-87.168 77.025-87.168 77.025l42.451-73.066 6.101-46.747 136.519-45.945" fill="#f2e5de"/><path d="M4158.068 1720.889c-52.546-9.852-76.854 37.227-110.911 114.082-34.057 76.852-92.242 170.187-103.8 182.228-11.56 12.024-194.879 0-194.879 0s-5.56 53.08 0 59.412c5.534 6.333 37.212 5.547 37.212 5.547s12.697 10.119 24.567 18.133c11.895 8.014 112.515 23.066 159.27 20.693 46.727-2.387 89.5-6.346 95.835-13.478 6.361-7.122 133.9-203.6 141.84-274.123 7.913-70.506-22.317-107.467-49.134-112.494" fill="#f2e5de"/><path d="M4003.13 1397.64c-99.373 4.76-83.805 154.254-83.805 154.254s25.816 7.973 79.888-.947c-4.152-16.04-2.387-57.04-2.387-57.04s6.304 33.281 14.27 53.48c11.442 5.241 24.363.587 46.34-4.72 11.286 47.495 43.2 67.574 65.046 74.44 24.13 7.586 49.687 16.626 78.201 2.374 28.515-14.265 12.844-160.04-2.309-189.346-22.729-44.015-60.532-83.388-125.89-62.6-32.77 10.44-69.354 30.105-69.354 30.105" fill="#303c60"/><path d="M4175.931 1575.182l40.622 59.35s-45.024 112.506 85.932 163.464c102.57 39.922 90.477 110.254 44.138 180.99-46.34 70.731 27.729 132.505 27.729 132.505s11.292-78.36 110.945-93.148c135.873-20.159 174.351-202.586 72.868-293.798-83.988-75.48-109.544-12.975-166.375-80.709-56.86-67.733-164.145-21.986-164.145-21.986l-39.336-57.36-12.378 10.692" fill="#303c60"/><path d="M4604.883 1907.949a3.433 3.433 0 01-1.564-.398 3.268 3.268 0 01-1.28-4.415c34.246-62.587 6.286-138.414-7.765-158.948-1.48-2.173-2.873-4.371-4.38-6.692-13.795-21.572-31.004-48.414-122.649-64.906-21.958-3.948-39.735-17.026-58.593-30.866-39.11-28.694-83.425-61.214-179.677-16.921-1.622.759-3.556.04-4.324-1.588a3.25 3.25 0 011.621-4.306c99.723-45.905 145.688-12.174 186.22 17.587 18.232 13.374 35.44 26.014 55.92 29.706 94.432 17 112.465 45.16 126.971 67.786 1.45 2.282 2.845 4.44 4.267 6.523 8.476 12.384 18.915 38.026 23.21 67.4 3.726 25.465 4.095 63.212-15.132 98.345-.57 1.081-1.707 1.693-2.845 1.693M4154.21 1635.631c-6.475 0-13.49-.562-21.022-1.695-34.641-5.187-81.122-24.88-84.758-135.559-.078-1.8 1.34-3.293 3.12-3.36 1.858-.08 3.302 1.346 3.354 3.146 1.522 45.815 10.627 79.721 27.057 100.787 12.51 16.028 29.096 25.107 52.181 28.561 32.32 4.852 53.78-1.148 63.736-17.828a3.263 3.263 0 014.463-1.12 3.232 3.232 0 011.109 4.455c-8.976 15.037-25.51 22.613-49.24 22.613" fill="#303c60"/><path d="M1052.897 1714.16C937.56 1780.12 777.133 2054.267 811 2099.013c33.868 44.734 215.684-72.906 215.684-72.906l26.213-311.947" fill="#96cfe0"/><path d="M1268.38 1396.24c-44.044-1.2-27.7-33.933-78.347-20.867-26.626 6.88-6.97 17.827-41.561 14.267-34.593-3.573-51.615-7.133-55.975 15.44-4.361 22.587-6.469 29.72-23.106 33.28-16.638 3.56-24.151 33.28 0 53.48 24.152 20.2 12.41 28.52 7.062 45.16-5.346 16.64 12.882 17.827 22.782 33.267 9.9 15.453-9.115 18.373 5.146 31.773 14.26 13.387 34.263 12.2 34.263 12.2l60.035-115.107 69.701-102.893" fill="#303c60"/><path d="M2165.687 2777.851s64.178 1.787 114.088-17.826c49.896-19.613 83.768-49.907 74.865-14.267-8.903 35.653-49.91 96.812-85.566 102.773-35.656 5.96-48.126 45.188-67.73 45.188-19.62 0-48.141-45.188-98.037-67.762-45.502-20.573 62.38-48.106 62.38-48.106M1659.973 2771.84s27 37.213 73.96 63.107c48.507 26.733 104.48 39.6 69.774 51.693-34.694 12.093-85.44 21.493-134.92 7.12-34.72-10.08-75.414-12.187-86.16-28.587-10.747-16.4 12.653-57.586 2.92-119.133-7.8-49.32 74.426 25.8 74.426 25.8" fill="#2e5b9a"/><path d="M1359.495 2173.628s371.718 139.186 401.675 178.106c29.944 38.906 420.683 393.36 420.683 419.492 0 26.148-66.553 73.694-66.553 73.694s-335.109-205.6-418.3-310.173c-83.205-104.587-286.225-155-394.158-164.68-107.936-9.693 56.653-196.44 56.653-196.44" fill="#3e6bab"/><path d="M1373.747 2173.627s254.32-9.507 308.986 0c54.667 9.506 174.574 9.4 96.147 230.746-61.48 173.494-81.76 393.147-81.76 393.147l-122.24 30.027s4.853-394.974 63.173-500.134c-42.466 7-120.426 20.654-228.48 51.56-200.438 57.32-310.338 28.614-310.338 28.614L1069.39 2303l304.356-129.373" fill="#4476bd"/><path d="M1161.375 1517.013l-62.14 183.6 78.504 51.694 44.488-158.64-60.852-76.654" fill="#a86b48"/><path d="M1184.76 1727.267l37.467-133.6-60.852-76.654-22.731 67.16c7.845 60.654 26.797 110.827 46.116 143.094" fill="#7a4e34"/><path d="M1319.883 1548.093c2.016 55.84-25.414 104.174-69.011 108.467-43.596 4.307-83.384-37.293-88.867-92.907-5.484-55.6 25.414-104.16 69.01-108.466 43.597-4.294 85.685 4.786 88.868 92.906" fill="#a86b48"/><path d="M1069.39 1695.267c-190.74 128.813-72.105 336.973-30.22 489.093 35.674 129.56 34.511 207.867 39.858 207.867 5.348 0 136.528-19.614 211.393-87.347 74.872-67.733 125.486-133.347 125.486-133.347s-95.92-17.08-127.268-141.16c-15.914-62.986-8.679-97.186-44.956-197.013-36.279-99.813-174.292-138.093-174.292-138.093" fill="#a2dff2"/><path d="M1069.39 1695.267l20.43-49.987s64.77 42.787 90.616 62.987c25.847 20.2 41.79 24.96 41.79 24.96s9.343 71.653 3.275 65.146c-76.445-81.933-156.11-103.106-156.11-103.106" fill="#a2dff2"/><path d="M984.856 2920.267h16.655l119.428-498.28h-36.64l-99.443 498.28M1483.747 2920.267h-16.654l-137.037-515.894h36.637l117.054 515.894" fill="#2e5b9a"/><path d="M1170.384 2440.653c-66.716 0-108.983-11.973-135.955-38.253-33.436-32.573-40.354-83.027-40.454-148.76-.211-138.2-7.854-166.773-46.76-251.16-4.316-9.36-.226-20.453 9.137-24.773 9.363-4.307 20.452-.227 24.767 9.146 41.124 89.2 49.968 121.987 50.189 266.734.101 66.613 8.553 101.986 29.172 122.066 21.152 20.614 59.385 29.107 123.972 27.494 62.36-1.547 105.285-10.267 139.776-17.28 45.359-9.214 78.145-15.88 117.012 2.693 9.307 4.453 13.24 15.587 8.787 24.893-4.44 9.307-15.587 13.24-24.88 8.8-27.587-13.186-51-8.426-93.483.2-35.928 7.307-80.64 16.387-146.29 18.014-5.126.133-10.127.186-14.99.186" fill="#2e5b9a"/><path d="M1994.56 2098.667H1724c-10.307 0-18.667-8.347-18.667-18.667 0-10.307 8.36-18.667 18.667-18.667h258.64l104.32-224.493c4.347-9.347 15.44-13.413 24.787-9.067 9.36 4.347 13.413 15.44 9.066 24.8l-109.333 235.294a18.658 18.658 0 01-16.92 10.8" fill="#3e6bab"/><path d="M1076.453 1882.813s47.536 144.987 106.362 205c58.825 60.014 177.212 80.187 214.278 77.827-29.546-11.88-85.824-45.693-108.454-135.267-15.914-62.986-8.679-97.186-44.956-197.013-26.931-74.093-109.908-114.28-150.89-130.067 51.151 36.747 115.104 97.24 134.758 143.28 21.814 51.107-151.098 36.24-151.098 36.24" fill="#96cfe0"/><path d="M1732.56 2010.053s81.987-37.426 90.907-33.866c8.906 3.573 99.813 58.466 99.813 67.56 0 9.093-80.213-33.894-80.213-33.894s8.92 23.76 3.573 35.16c-5.347 11.387-67.013 11.387-122.64 7.827-55.613-3.56 8.56-42.787 8.56-42.787" fill="#a86b48"/><path d="M1079.075 1770.8c-75.584 154.92 183.693 311.96 337.512 325.92 153.826 13.973 336.573-36.373 336.573-36.373l-20.6-50.294s-308.173-40.213-315.973-45.853c-7.8-5.627-309.83-250.133-337.512-193.4" fill="#a2dff2"/><path d="M1177.348 1522.24c7.007 18.427 1.87 37.467-11.473 42.547-13.343 5.08-29.838-5.747-36.844-24.174-7.006-18.426-1.868-37.466 11.473-42.546 13.343-5.067 29.839 5.746 36.844 24.173" fill="#a86b48"/><path d="M1319.987 1404.293c20.88-8.72 44.4-18.053 37.12 17.427-3.16 15.453 0 11.093 5.546 25.36 5.547 14.253-13.973 25.453-20.306 33.373-6.347 7.92 9.226 16.534-3.454 26.04-12.678 9.507-29.39-3.52-41.2 0-35.256 10.52-30.898-17.213-50.705-22.973-19.807-5.773-29.515-4.88-33.275 7.8-3.76 12.68 13.866 54.387-1.188 50.427-15.053-3.96-18.442 29.706-22.492 48.733-4.049 19.013-14.377-13.133-13.709-34.88 1.024-33.36-7.257-47.373-19.545-56.707-12.288-9.333-17.52-94.2 41.9-97.373 59.42-3.173 59.797-8.907 85.15-14.267 25.352-5.36 26.64 21.014 36.158 17.04" fill="#303c60"/><path d="M4651.327 2373.465c37.872 34.588 21.42 69.188-6.605 133.426-27.995 64.241-32.934 301.455-32.934 301.455l23.057-3.293s-3.302-243.801 27.995-309.693c31.298-65.895 44.478-98.826 72.473-77.415 28.025 21.415-83.986-44.48-83.986-44.48" fill="#74b570"/><path d="M4630.501 2328.68c4.593-20.505 31.936-42.68 68.464-61.507-5.444 30.241-22.842 79.68-4.806 89.827 24.302 13.665 2.342-55.361 11.74-93.294 34.308-16.759 75.581-30.452 113.6-37.268-.061.15-.122.283-.152.43-21.443 54.36-49.424 75.772-37.897 83.999 8.668 6.201 36.923-56.587 74.242-88.775 28.012-1.493 51.705 2.293 65.696 13.4 21.686 17.149 36.224 32.362 14.447 84.587-12.47 8.894-28.59 15.269-47.325 17.148-49.394 4.946-72.479 6.585-37.897 23.067 16.971 8.066 45.348-.453 68.372-5.654-7.482 13.76-16.667 29.335-27.799 47.079-7.086 11.253-14.872 21.013-23.176 29.469-15.907 3.053-29.806 3.078-37.136-.067-23.085-9.882-82.363-41.188-97.206-28-14.508 12.893 109.828 21.065 101.22 53.84-60.282 34.719-129.232 18.2-141.428-13.68-16.363-42.815-76.798-52.895-62.959-114.6" fill="#9cd499"/><path d="M4755.101 2562.905c-65.9-49.427-133.434-3.305-168.033 49.415-34.57 52.706-9.86 171.306-9.86 171.306s13.157 0 13.157-4.933c0-4.948-36.233-140.016 49.418-200.974 53.59-38.12 92.243-19.762 97.202-1.64 4.93 18.12-21.413 51.066-21.413 51.066l39.53-64.24" fill="#74b570"/><path d="M4603.544 2461.32c65.902 0 87.313 102.131 69.183 161.426-18.101 59.306-42.822 169.668-42.822 169.668l-16.461-16.467s62.593-154.841 47.772-224.027c-14.85-69.189-51.082-80.72-57.672-80.72-6.59 0 0-9.88 0-9.88" fill="#9cd499"/><path d="M4658.816 2623.214c4.62-6.148 10.357-11.215 17.328-14.588a134.797 134.797 0 01-3.414 14.12c-8.262 27.027-17.873 64.64-25.905 97.588-.746-4.214-1.865-10.72-3.615-20.747a93.14 93.14 0 01-.947-7.666c6.455-21.946 12.566-45.866 16.553-68.707" fill="#74b570"/><path d="M4676.829 2623.707c125.17-52.72 59.21-125.052 169.578-77.279 7.78 3.36 17.254 11.854 26.729 23.548-9.838 2.785-21.735 4.798-34.963 2.812-32.935-4.946-21.402 21.414 32.935 28 10.262 1.239 18.586 2.961 25.488 5.374 25.912 49.747 37.566 115.187-17.224 137.932-10.807 4.493-24.157 7.054-39.02 8.013-16.921-13.44 4.117-91.227-21.946-80.493-25.034 10.322 7.84 66.68 3.33 80.88-24.701-.438-52.066-4.48-78.19-10.96-10.353-5.8-18.253-13.574-20.675-23.784-8.234-34.603 46.133-56.017 47.767-85.667 1.514-27.256-19.918 59.973-76.706 72.81-51.37-23.986-75.647-56.545-17.103-81.186M4587.613 2530.507c13.178-28-21.4-34.6-19.766-13.186 1.46 18.987 1.633 65.105-17.819 77.664-33.574-3.638-79.237-17.16-113.756-37.77-.43-2.788-.029-5.656 1.461-8.59 14.81-29.651 110.347-54.36 80.698-64.24-23.605-7.877-65 38.588-98.344 61.99-20.025-15.2-33.431-33.308-33.431-53.522 0-27.374 33.259-58.347 76.258-73.16 19.365 1.959 37.326 12.532 65.4 28.454 41.48 23.505 31.884-14.507-7.333-37.054 33.86 1.747 67.635 16.214 92.5 50.773 0 0-2.32 14.773 13.292 37.628 42.655 62.332-6.56 98.72-65.4 96.359 3.323-16.426 17.159-46.001 26.24-65.346" fill="#9cd499"/><path d="M4751.146 2560.105c32.211 24.893 67.975 54.001 111.927 73.762 43.922 19.772 35.132 84.198 35.132 84.198s6.593-55.638-30.014-74.68c-36.607-19.025-60.78-41.733-88.597-46.12-27.816-4.4-43.2-8.786-43.2-8.786s8.79-17.572 3.673-24.16c-5.118-6.586 11.079-4.214 11.079-4.214M4909.908 2267.799c-117.868 31.48-204.259 106.894-220.374 125.2-16.115 18.293-16.115 23.429-16.115 23.429l12.47 23.426 5.844-2.934s-9.519-19.76 15.362-45.388c42.954-44.199 95.186-79.08 131.062-94.451 35.875-15.375 71.75-29.282 71.75-29.282" fill="#74b570"/><path d="M4584.514 2920.268h45.064c32.007 0 57.976-25.96 57.976-57.988v-103.465h-161.016v103.465c0 32.028 25.968 57.988 57.976 57.988" fill="#75a1de"/><path d="M4687.554 2788.64h-161.016v-11.331h161.016v11.33M4687.554 2804.64h-161.016v-6.666h161.016v6.666" fill="#fff"/><path d="M2674.547 598.072c0-122.011-98.136-221.109-219.802-222.67-122.21-1.562-223.614 96.846-225.575 219.057-.944 59.643 21.588 114.04 58.936 154.529a101.07 101.07 0 0126.744 68.486v99.824c0 64.582 52.835 117.417 117.418 117.417h39.145c64.6 0 117.435-52.835 117.435-117.417v-99.806c0-25.6 9.86-50.094 27.162-68.94 36.35-39.635 58.537-92.47 58.537-150.48" fill="#f5dc95"/><path d="M2468.681 988.667h-33.674c-55.558 0-101.005-45.465-101.005-101.024V801.77a86.866 86.866 0 00-23.028-58.917c-32.12-34.835-51.503-81.622-50.68-132.946 1.66-104.31 87.553-188.47 191.577-188.47.84 0 1.661 0 2.483.018 104.65 1.34 189.077 86.589 189.077 191.56 0 49.913-19.097 95.36-50.36 129.445-14.88 16.24-23.366 37.301-23.366 59.31v85.874c0 55.559-45.447 101.024-101.024 101.024" fill="#faeeca"/><path d="M2484.751 857.519h-73.334a6.662 6.662 0 01-6.637-6.062c-.132-1.43-13.833-142.99-77.113-182.63a6.647 6.647 0 01-2.12-9.183c1.956-3.122 6.063-4.075 9.184-2.12 61.753 38.672 79.298 157.956 82.682 186.655h60.29c-.246-9.84.313-28.847 5.997-53.456 7.59-32.873 26.186-82.485 71.725-132.049 2.48-2.727 6.702-2.891 9.43-.41 2.693 2.497 2.89 6.719.394 9.43-83.241 90.6-73.976 181.496-73.877 182.4a6.665 6.665 0 01-1.66 5.19 6.594 6.594 0 01-4.96 2.235" fill="#94bdf2"/><path d="M2350.926 602.027c-4.412 0-8.215.811-11.24 2.603-6.542 3.887-9.922 13.2-10.058 27.687-.135 15.381 3.246 25.27 10.058 29.394 16.463 9.972 54.883-8.553 91.748-28.008-29.8-15.906-61.07-31.676-80.508-31.676zm108.837 31.71c36.595 19.455 74.896 38.081 91.816 28.126 7.065-4.175 10.75-14.165 10.953-29.698.203-14.655-2.975-24.087-9.432-28.008-16.345-9.956-56.033 9.786-93.337 29.58zm79.883 44.2c-24.763 0-58.518-17.579-94.064-36.645-45.925 24.441-88.79 46.381-112.793 31.828-11.29-6.846-16.683-20.233-16.497-40.922.17-19.489 5.764-32.622 16.615-39.028 24.036-14.25 67.003 8.468 112.708 32.994 46.584-24.847 90.464-47.987 114.415-33.4 10.767 6.558 16.092 19.86 15.838 39.586-.253 20.504-6.17 34.296-17.528 40.99-5.392 3.194-11.697 4.597-18.694 4.597M2475.436 1066.394h-42.67c-15.032 0-27.33-12.298-27.33-27.33v-4.008c0-15.032 12.298-27.33 27.33-27.33h42.67c15.032 0 27.331 12.298 27.331 27.33v4.008c0 15.032-12.299 27.33-27.33 27.33" fill="#94bdf2"/><path d="M2308.375 845.516v70.599c0 67.637 55.33 122.966 122.967 122.966h40.999c67.637 0 122.967-55.33 122.967-122.966v-70.599h-286.933" fill="#94bdf2"/><path d="M2594.09 867.746h-280.897c-8.807 0-15.997-7.205-15.997-16.012v-1.778c0-8.79 7.19-15.997 15.997-15.997h280.897c8.79 0 15.996 7.206 15.996 15.997v1.778c0 8.807-7.205 16.012-15.996 16.012" fill="#9ec8ff"/><path d="M2595.082 893.063l-278.75 34.443c-8.743 1.073-16.782-5.188-17.839-13.93l-.24-1.762c-1.073-8.727 5.188-16.766 13.931-17.839l278.767-34.443c8.743-1.073 16.765 5.188 17.838 13.931l.224 1.761c1.073 8.727-5.188 16.766-13.93 17.839M2595.082 941.854l-278.75 34.427c-8.743 1.09-16.782-5.172-17.839-13.915l-.24-1.761c-1.073-8.727 5.188-16.766 13.931-17.839l278.767-34.443c8.743-1.073 16.765 5.188 17.838 13.931l.224 1.761c1.073 8.727-5.188 16.766-13.93 17.839M2577.903 994.053l-232.184 28.683c-8.013.986-15.39-4.754-16.376-12.783l-.54-4.372c-.987-8.014 4.753-15.375 12.767-16.377l232.2-28.667c8.013-1.002 15.358 4.754 16.36 12.767l.54 4.373c.986 8.013-4.753 15.39-12.767 16.376M4588.076 1057.351h149.66c0 82.097-67.549 149.649-149.66 149.649-82.082 0-149.631-67.552-149.631-149.649 0-82.094 67.549-149.649 149.631-149.649v149.649" fill="#9ec8ff"/><path d="M4762.795 1036.401c0-82.648-67-149.648-149.663-149.648V1036.4h149.663M4463.48 1036.403c0 82.65 67.019 149.65 149.659 149.65-82.103 0-149.658-67.556-149.658-149.65" fill="#f39892"/><path d="M4613.139 886.754c-82.64 0-149.658 67-149.658 149.65 0-82.095 67.555-149.65 149.658-149.65M4613.132 1186.05c82.662 0 149.663-66.998 149.663-149.649 0 82.095-67.556 149.648-149.663 149.648" fill="#f39892"/><path d="M1691.959 1052.935h-32.682v-94.577h32.682v94.577M2110.874 1052.944h-32.69v-63.811h32.69v63.81M1830.462 1052.94h-32.69V831.676h32.69v221.266M1899.714 1052.947h-32.676V953.49h32.676v99.457M1968.984 1052.933h-32.693v-127.61h32.693v127.61M1761.204 1052.93h-32.673V895.918h32.673v157.012M2038.466 1052.938h-32.69v-193.38h32.69v193.38" fill="#9ec8ff"/><g clip-path="url(#a)" transform="matrix(.13333 0 0 -.13333 0 3333.333)"><path d="M5911.195 19159.735l-1285.551 786.086-232.534-1488.84c603.93-95.2 1202.868 187.834 1518.085 702.754" fill="#a2dff2"/><path d="M5912.539 19161.47c3.472 5.576 7.997 13.433 7.82 13.18 271.506 454.729 282.481 1019.591 33.369 1483.318-454.932-238.39-184.02-93.531-1328.092-712.13 1287.676-787.537 1087.686-665.997 1286.903-784.369" fill="#9cd499"/><path d="M3212.478 20466.495l1413.145-520.72 1325.662 716.843c-620.093 1146.714-2289.207 1009.192-2738.807-196.123" fill="#9ec8ff"/><path d="M4393.09 18456.965l232.527 1488.777-1413.139 520.701c-336.039-900.9 260.401-1864.455 1180.613-2009.478" fill="#f39892"/><path d="M3119.995 20220.003c26.315 0 50.497-6.807 71.418-18.494 12.226 67.423 29.23 134.461 51.305 200.472l767.327-282.664-.051.642c-1.567 34.932 11.61 67.68 33.352 93.622l-76.837 28.254-688.872 253.896c56.533 137.543 131.7 262.63 221.944 373.203-32.491 11.944-59.062 34.932-76.592 64.341-97.45-119.178-178.46-254.41-239.128-402.998l-.835.257-17.388-46.618-17.543-47.004.822-.385c-24.298-72.175-42.933-145.505-56.212-219.35 8.964 1.798 18.095 2.826 27.29 2.826" fill="#fff"/><path d="M5894.795 19230.11l-9.53 5.637c-52.518 31.07-75.342 44.574-180.024 108.418l-979.42 598.856 813.056 439.703c119.391 64.238 168.33 89.802 289.583 153.253 29.628 15.47 63.556 33.168 103.856 54.275 211.893-429.346 198.036-942.988-37.52-1360.142zm-1444.464-730.74l213.126 1364.599 554.663-339.282c223.627-136.735 351.552-215 432.086-264.162l191.482-117.07c-305.433-463.17-842.108-711.6-1391.357-644.085zm1567.893 2142.534l.826.525-23.794 43.918-1.482 2.622-19.441 36.183-.748-.394c-150.002 260.623-363.875 468.545-621.129 602.527-251.931 131.229-538.328 189.96-828.356 169.772-340.986-23.598-651.649-151.418-898.427-358.291 28.998-17.567 51.22-44.967 63.556-77.348 231.139 193.894 522.229 313.718 841.806 336.004 557.73 38.674 1071.084-234.272 1351.765-715.008l-391.524-211.723c-80.822-43.525-193.816-104.617-383.003-207.004-121.2-65.55-273.707-148.141-469.043-253.806l-12.06-6.424-39.37 23.991-2.162-13.634-275.713 101.6c.276-35.133-14.027-67.646-36.864-93.079L4569.906 19913l-218.357-1398.03c-412.382 79.577-769.204 333.12-984.52 701.768-128.686 220.245-195.428 465.267-198.43 712.124-15.6-5.637-32-8.914-48.598-8.914-18.327 0-35.514 3.408-51.39 9.439 2.91-264.556 74.214-527.145 212.077-763.122 230.55-394.605 613.237-665.846 1055.43-750.142l-.117-.787 49.253-7.866 49.516-7.735.131.787c63.963-7.866 128.044-11.93 191.967-11.93 224.846 0 447.542 49.162 654.625 145.519 265.132 123.494 487.855 316.47 646.968 559.657l1.01-.655 9.793 16.125 15.941 26.088c2.452 4.064 5.375 9.046 7.053 11.8l1.05 1.834.773 1.311 15.85 25.958-.722.393c255.458 449.01 270.023 1003.555 39.015 1465.282" fill="#e7f3fe"/></g><path d="M1715.906 710.634h-552.751a10.884 10.884 0 01-10.893-10.893V461.886c0-6.012 4.877-10.892 10.893-10.892h552.751c6.013 0 10.893 4.88 10.893 10.892v237.855c0 6.03-4.88 10.893-10.893 10.893" fill="#9ec8ff"/><path d="M1702.29 698.455h-525.52c-4.86 0-8.8-3.936-8.8-8.788V528.02a8.799 8.799 0 018.8-8.805h525.52c4.853 0 8.8 3.937 8.8 8.805v161.648c0 4.852-3.947 8.788-8.8 8.788M1193.581 490.35h-12.754a4.872 4.872 0 01-4.878-4.865V474.98a4.876 4.876 0 014.878-4.883h12.754a4.875 4.875 0 014.877 4.883v10.505a4.871 4.871 0 01-4.877 4.866M1234.504 490.35h-12.754a4.871 4.871 0 01-4.876-4.865V474.98a4.875 4.875 0 014.876-4.883h12.754a4.875 4.875 0 014.877 4.883v10.505a4.871 4.871 0 01-4.877 4.866M1275.428 490.35h-12.755a4.871 4.871 0 01-4.876-4.865V474.98a4.875 4.875 0 014.876-4.883h12.755a4.875 4.875 0 014.878 4.883v10.505a4.871 4.871 0 01-4.878 4.866" fill="#fff"/><path d="M1688.981 558.498h-287.28c-4.72 0-8.586-3.854-8.586-8.582 0-4.728 3.866-8.599 8.587-8.599h287.28c4.732 0 8.598 3.871 8.598 8.599s-3.866 8.582-8.599 8.582M1472.923 691.07h-287.285c-4.728 0-8.595-3.866-8.595-8.581 0-4.732 3.867-8.598 8.595-8.598h287.285c4.722 0 8.589 3.866 8.589 8.598 0 4.715-3.867 8.582-8.589 8.582M1525.845 691.07h-29.734a2.944 2.944 0 01-2.933-2.936v-11.307a2.944 2.944 0 012.933-2.936h29.734a2.944 2.944 0 012.933 2.936v11.307a2.944 2.944 0 01-2.933 2.937M1570.659 691.07h-29.734a2.944 2.944 0 01-2.933-2.936v-11.307a2.944 2.944 0 012.933-2.936h29.734a2.943 2.943 0 012.932 2.936v11.307a2.943 2.943 0 01-2.932 2.937M1691.762 595.955h-475.745c-3.209 0-5.833-2.631-5.833-5.836 0-3.204 2.624-5.835 5.833-5.835h475.745c3.187 0 5.818 2.631 5.818 5.835 0 3.205-2.63 5.836-5.818 5.836M1691.748 621.115h-475.732c-3.207 0-5.832-2.623-5.832-5.832 0-3.208 2.625-5.832 5.832-5.832h475.732c3.209 0 5.832 2.624 5.832 5.832 0 3.209-2.623 5.832-5.832 5.832" fill="#9ec8ff"/><path d="M3126.97 545.304h-245.342V402.326h184.51c23.769 23.75 37.083 37.064 60.832 60.813v82.165" fill="#ffb8b3"/><path d="M3061.63 402.326v76.314h65.34v-14.657l-61.235-61.254-4.105-.403" fill="#f39892"/><path d="M3066.138 402.326v61.657h60.832l-60.832-61.657" fill="#ffb8b3"/><path d="M3018.636 455.98H2909.31c-2.374 0-4.34-1.967-4.34-4.34 0-2.393 1.966-4.34 4.34-4.34h109.327a4.345 4.345 0 014.34 4.34c0 2.373-1.947 4.34-4.34 4.34M3018.636 478.142H2909.31c-2.374 0-4.34-1.948-4.34-4.34 0-2.374 1.966-4.321 4.34-4.321h109.327c2.393 0 4.34 1.947 4.34 4.32a4.345 4.345 0 01-4.34 4.34M3018.636 501.472H2909.31c-2.374 0-4.34-1.947-4.34-4.34 0-2.373 1.966-4.32 4.34-4.32h109.327c2.393 0 4.34 1.947 4.34 4.32a4.345 4.345 0 01-4.34 4.34" fill="#fff"/><path d="M3004.307 413.313c0 4.036-3.28 7.335-7.335 7.335-4.037 0-7.336-3.299-7.336-7.335 0-4.055 3.3-7.336 7.336-7.336a7.331 7.331 0 017.335 7.336" fill="#3e6bab"/><path d="M2036.392 593.893l-153.08-29.572 35.66-184.591 153.099 29.572-35.68 184.591" fill="#fae8b6"/><path d="M2039.656 489.112l-81.154-15.678a4.024 4.024 0 01-3.185-4.68 4.016 4.016 0 014.699-3.168l81.17 15.678a4.025 4.025 0 013.168 4.68 4.016 4.016 0 01-4.698 3.168M2035.754 509.395l-81.174-15.69c-2.149-.402-3.581-2.516-3.162-4.682.42-2.15 2.516-3.582 4.682-3.163l81.174 15.672c2.149.42 3.582 2.534 3.162 4.7-.419 2.15-2.533 3.582-4.682 3.163M2031.73 530.235l-81.17-15.679c-2.167-.416-3.572-2.532-3.173-4.683a4.011 4.011 0 014.682-3.174l81.17 15.68a4.011 4.011 0 013.174 4.682 4.011 4.011 0 01-4.683 3.174" fill="#9ec8ff"/><path d="M1984.724 404.47c-.685 3.623-4.18 5.983-7.803 5.28a6.684 6.684 0 01-5.298-7.802c.72-3.623 4.217-5.983 7.821-5.28 3.622.702 5.983 4.198 5.28 7.802" fill="#3e6bab"/><path d="M3240.186 745.376l-236.9-24.948 15.635-148.514 187.841 19.783c17.151 21.18 26.764 33.065 43.914 54.244l-10.49 99.435" fill="#9ec8ff"/><path d="M3203.412 602.307l-176.376-18.59-13.182 125.319 219.243 23.083 7.734-73.366-42.886-4.513 5.467-51.933" fill="#fff"/><path d="M3179.512 647.816l-114.251-12.037c-2.6-.274-4.534-2.638-4.24-5.256.253-2.619 2.637-4.534 5.256-4.26l114.231 12.037a4.796 4.796 0 014.26 5.256 4.796 4.796 0 01-5.256 4.26M3176.865 672.992l-114.254-12.046a4.792 4.792 0 01-4.256-5.252c.293-2.617 2.655-4.53 5.252-4.257l114.254 12.027c2.616.273 4.53 2.655 4.256 5.272a4.792 4.792 0 01-5.252 4.256M3174.09 699.273l-114.233-12.036c-2.633-.273-4.525-2.653-4.272-5.267.293-2.613 2.653-4.525 5.267-4.252l114.252 12.036c2.614.273 4.526 2.633 4.253 5.267-.293 2.614-2.653 4.525-5.267 4.252" fill="#9ec8ff"/><path d="M3114.908 606.203c0 4.032-3.287 7.319-7.338 7.319-4.032 0-7.32-3.287-7.32-7.32 0-4.05 3.288-7.338 7.32-7.338a7.34 7.34 0 017.338 7.339" fill="#3e6bab"/><path d="M4417.409 490.365c0 45.177-36.613 81.79-81.79 81.79-45.177 0-81.817-36.613-81.817-81.79 0-45.177 36.64-81.817 81.817-81.817 45.177 0 81.79 36.64 81.79 81.817" fill="#9cd499"/><path d="M4327.5 518.35h-.161c-1.102-.028-2.123-.538-2.848-1.344l-22.22-25.255c-1.45-1.666-1.316-4.191.35-5.642 1.666-1.451 4.191-1.29 5.642.349l19.425 22.085 44.465-43.498c1.585-1.558 4.11-1.532 5.642.054a3.997 3.997 0 01-.054 5.669l-47.447 46.453a4.06 4.06 0 01-2.794 1.128" fill="#fff"/><path d="M650.025 1249.701h471.599c12.089 0 21.979-9.888 21.979-21.975v-168.501c0-12.086-9.89-21.975-21.98-21.975H650.026c-12.086 0-21.974 9.889-21.974 21.975v168.501c0 12.087 9.888 21.975 21.974 21.975" fill="#9ec8ff"/><path d="M1081.336 1217.64v117.213l-135.07-135.066s132.323 17.853 135.07 17.853" fill="#9ec8ff"/><path d="M673.348 1228.63h424.957c10.247 0 18.632-8.375 18.632-18.633v-133.054c0-10.245-8.385-18.633-18.632-18.633H673.348c-10.247 0-18.631 8.388-18.631 18.633v133.054c0 10.258 8.384 18.632 18.631 18.632" fill="#fff"/><path d="M865.226 1100.421h208.787c5.035 0 9.158-4.115 9.158-9.156 0-5.042-4.123-9.157-9.158-9.157H865.226c-5.037 0-9.157 4.115-9.157 9.157 0 5.04 4.12 9.156 9.157 9.156M690.83 1135.444h387.243c2.8 0 5.09-2.29 5.09-5.08v-.109c0-2.804-2.29-5.094-5.09-5.094H690.83c-2.8 0-5.09 2.29-5.09 5.094v.109c0 2.79 2.29 5.08 5.09 5.08M690.83 1155.374h387.245c2.799 0 5.09-2.282 5.09-5.088v-.107c0-2.792-2.291-5.088-5.09-5.088H690.83c-2.8 0-5.09 2.296-5.09 5.088v.107c0 2.806 2.29 5.088 5.09 5.088M4137.999 1101.25h24.726c5.221 0 9.445-4.23 9.445-9.45v-20.353c0-5.222-4.224-9.453-9.445-9.453h-24.726c-5.222 0-9.445 4.231-9.445 9.453v20.354c0 5.219 4.223 9.45 9.445 9.45M4058.669 1101.26h24.733c5.223 0 9.441-4.228 9.441-9.449v-20.356c0-5.218-4.218-9.449-9.441-9.449h-24.733c-5.223 0-9.441 4.231-9.441 9.449v20.356c0 5.22 4.218 9.449 9.441 9.449M3979.361 1101.26h24.722c5.22 0 9.455-4.23 9.455-9.45v-20.354c0-5.22-4.235-9.45-9.455-9.45h-24.722c-5.22 0-9.43 4.23-9.43 9.45v20.353c0 5.22 4.21 9.45 9.43 9.45" fill="#9ec8ff"/></svg>
