<svg xmlns="http://www.w3.org/2000/svg" viewBox="0 0 400 400"><g fill-rule="evenodd"><path fill="#121111" d="M192.789 8.173c-22.69 7.943-21.853 40.323 1.211 46.856 19.23 5.447 36.233-15.588 27.479-33.993-5.302-11.146-17.705-16.707-28.69-12.863m10.267 6.242c8.756 2.347 13.744 8.583 13.744 17.185 0 5.915-5.414 15.2-8.862 15.2-.191 0-1.147.376-2.125.836-6.486 3.048-16.212-.619-20.338-7.67-6.372-10.887 1.025-24.57 14.232-26.325.169-.023 1.676.326 3.349.774M94.4 43.583c-.33.223-1.217.408-1.971.411-6.54.029-16.528 10.04-18.084 18.125-1.111 5.775-.927 8.488.953 14.081 7.761 23.096 41.851 20.251 45.538-3.8.186-1.21.456-2.9.601-3.756.243-1.438-.066-3.584-1.101-7.644-1.519-5.954-9.469-14.506-15.093-16.238-3.839-1.182-9.867-1.838-10.843-1.179m205 .002c-.44.197-1.27.371-1.845.387-1.316.035-6.259 2.057-8.022 3.281-14.667 10.179-14.327 32.479.633 41.498 10.734 6.471 26.95 2.845 32.026-7.163.388-.763.92-1.658 1.183-1.988.413-.518.962-2.111 2.674-7.76 2.396-7.907-3.572-20.52-11.989-25.34-4.398-2.518-12.122-4.054-14.66-2.915m-195.789 8.239c13.858 6.604 14.354 25.01.854 31.682-12.419 6.137-26.669-6.38-23.101-20.293 2.582-10.067 13.4-15.605 22.247-11.389m203.729-.677c12.38 4.084 15.975 19.602 6.692 28.885-6.869 6.869-16.014 6.903-22.906.086-12.512-12.377-.196-34.385 16.214-28.971M177.8 62.395c-.44.192-1.356.361-2.036.377-4.144.094-11.452 6.328-14.559 12.419-2.36 4.625-3.603 22.933-1.795 26.429l.611 1.18h79.735l1.122-1.075L242 100.65v-8.532c0-16.659-6.029-26.983-17.2-29.454-2.262-.501-45.897-.75-47-.269m44.674 7.784c5.329.688 9.702 5.48 11.303 12.385.757 3.262.851 11.048.143 11.756-.695.695-66.345.695-67.04 0-.71-.71-.625-9.193.119-12.053.555-2.129 1.331-3.805 3.181-6.867 1.383-2.289 4.77-4.489 7.973-5.179 2.078-.448 40.895-.485 44.321-.042m56.043 28.835c-7.894 2.126-15.189 9.741-16.378 17.095-.134.83-.4 1.605-.592 1.723-.191.119-.347 4.511-.347 9.761v9.546l1.036 1.23 1.035 1.231h38.984c41.907 0 40.643.06 41.733-1.978 1.233-2.303.301-20.691-1.195-23.594-.178-.345-.82-1.7-1.428-3.01-2.423-5.228-8.83-10.56-14.446-12.022-3.265-.851-45.236-.835-48.402.018m-204.592 1.004c-4.906.748-11.881 5.621-14.002 9.782-.449.88-1.042 1.87-1.318 2.2-.546.652-1.453 3.266-2.402 6.92-.641 2.466-.886 18.437-.297 19.32.888 1.33 1.79 1.36 41.486 1.36h39.444l.982-.982.982-.982v-8.889c0-4.89-.17-9.443-.378-10.119-.208-.675-.661-2.218-1.007-3.428-1.724-6.035-7.558-12.198-13.735-14.51-2.48-.928-44.366-1.494-49.755-.672m47.712 7.719c7.516 2.394 10.363 7.783 10.363 19.612 0 2.337-.176 3.867-.48 4.171-.509.509-65.578.74-66.887.237-.749-.287-.968-12.703-.233-13.157.22-.136.4-.566.4-.956 0-2.43 5.614-9.201 8.396-10.126 2.137-.711 11.348-1.009 29.004-.939l16 .063 3.437 1.095m205.438-.075c4.056 1.518 8.033 6.268 9.158 10.938.54 2.24.648 12.22.14 12.833-.643.774-66.321.859-67.093.087-.874-.874-.626-10.139.353-13.154 1.927-5.94 4.656-9.023 9.767-11.033 2.515-.989 44.934-.696 47.675.329m-140.2 21.463c-.405.405-.96 1.892-1.233 3.306a195.274 195.274 0 0 1-.869 4.246c-.205.923-.373 2.38-.373 3.238 0 1.968-.585 2.503-4.421 4.039-1.66.665-4 1.665-5.199 2.223-3.357 1.563-3.968 1.421-9.373-2.182-6.796-4.53-7.398-4.383-15.207 3.733-11.015 11.448-10.691 10.524-6.116 17.435 3.597 5.435 3.74 6.101 2.069 9.637-.572 1.21-1.471 3.449-1.999 4.977-1.229 3.56-2.206 4.623-4.247 4.623-.854 0-2.307.168-3.23.373-.922.205-2.81.591-4.194.858-4.245.819-4.113.341-3.989 14.508l.106 12.017 1.379.804c.758.443 2.378.939 3.6 1.103 8.44 1.131 8.966 1.349 9.861 4.095.366 1.123 1.163 3.122 1.77 4.442 2.639 5.734 2.604 6.04-1.369 11.965-4.441 6.623-4.677 5.945 5.695 16.335 9.844 9.862 8.983 9.521 14.539 5.755 6.289-4.265 7.78-4.631 10.97-2.691.671.408 2.439 1.154 3.929 1.657 4.424 1.494 5.178 2.18 5.493 4.993.752 6.721 1.652 9.929 2.95 10.521.701.32 4.684.465 12.74.465 14.542 0 12.984 1.027 14.566-9.6.596-3.999 1.028-4.649 3.632-5.456 1.235-.383 3.751-1.472 5.591-2.42 4.22-2.174 3.476-2.305 9.505 1.674 7.277 4.803 6.303 5.128 17.049-5.69 9.623-9.689 9.393-9.026 5.252-15.133-4.034-5.95-4.322-7.212-2.369-10.375.272-.44.817-1.79 1.21-3 1.649-5.063 2.861-6.368 6.367-6.854 6.486-.898 7.656-1.151 8.603-1.858l1.037-.774.106-12.444.105-12.444-.905-.575c-.498-.317-1.986-.787-3.306-1.045-1.32-.259-3.155-.636-4.077-.838-.923-.202-2.38-.368-3.238-.368-1.958 0-2.563-.651-3.717-4a72.122 72.122 0 0 0-2.074-5.2c-1.846-4.073-1.734-4.685 1.827-9.961 4.518-6.692 4.841-5.694-5.021-15.5-10.738-10.677-9.651-10.298-16.455-5.731-5.367 3.603-6.14 3.786-9.277 2.193-1.082-.55-2.598-1.202-3.368-1.449-5.868-1.882-5.899-1.931-7.137-11.173-.164-1.222-.66-2.842-1.103-3.6l-.804-1.379-12.272-.106c-11.466-.099-12.321-.057-13.009.631m20.68 8.392c.211.394.759 2.657 1.216 5.029 1.156 5.989 1.763 6.804 5.829 7.828 3.955.996 5.985 1.854 13.019 5.504 2.006 1.041 4.286.658 6.17-1.034 1.256-1.13 5.717-4.044 6.189-4.044 1.216 0 10.108 9.692 9.674 10.544-.24.471-1.603 2.656-3.029 4.856-2.922 4.508-3.177 5.733-1.686 8.108.515.821 1.517 2.752 2.228 4.292 1.801 3.906 1.921 4.199 2.465 6 1.962 6.503 2.229 6.752 8.437 7.865 6.483 1.161 5.933.407 5.933 8.135 0 6.148-.051 6.599-.795 6.997-.862.461-8.792 1.987-10.379 1.997-1.348.008-2.826 1.503-2.826 2.857 0 .611-.161 1.525-.358 2.03-.197.506-.589 1.729-.87 2.719-.541 1.904-3.3 7.786-4.128 8.8-1.855 2.273-1.544 3.978 1.605 8.812 2.212 3.396 2.951 4.714 2.951 5.259 0 .433-9.308 9.929-9.732 9.929-.252 0-1.157-.605-7.014-4.694-2.407-1.68-3.88-1.677-6.787.011-4.05 2.354-7.355 3.743-12.518 5.264-3.345.985-3.822 1.7-4.903 7.347-1.25 6.529-.668 6.113-8.388 5.982-7.428-.127-7.031.112-7.819-4.71-.234-1.43-.541-3.288-.682-4.129-.381-2.27-1.792-3.688-4.463-4.484-6.485-1.933-9.429-3.147-12.775-5.268-3.145-1.994-4.17-1.738-10.707 2.673-3.726 2.514-2.8 2.834-8.592-2.972l-4.969-4.981 1.682-2.319c5.619-7.752 5.947-8.607 4.254-11.1-2.099-3.094-3.755-6.96-5.405-12.62-1.248-4.283-1.84-4.734-7.582-5.777-2.09-.379-4.295-.876-4.9-1.105l-1.1-.415v-6.709c0-5.835.085-6.741.653-6.959.359-.138 2.834-.69 5.5-1.227 5.661-1.14 6.485-1.772 7.391-5.67.643-2.768 1.357-4.488 4.288-10.338 2.683-5.355 2.688-4.991-.132-9.413-3.393-5.32-3.639-5.741-3.671-6.278-.025-.418 7.338-8.076 9.254-9.626.546-.441 1.309-.076 5.226 2.5 5.961 3.919 6.112 3.944 10.54 1.688 4.923-2.507 6.625-3.196 10.551-4.271 4.622-1.265 5.073-1.874 6.197-8.373.979-5.656.322-5.227 8.003-5.227 5.908 0 6.611.072 6.955.717M50.4 152.344c-15.69 3.617-24.046 21.842-16.321 35.597 12.41 22.094 44.721 13.699 44.721-11.62 0-9.86-5.952-19.171-14.448-22.603-4.692-1.895-9.597-2.378-13.952-1.374m290 .046c-12.047 2.795-18.807 11.445-18.796 24.053.025 27.839 37.071 33.759 45.998 7.351 5.816-17.207-9.949-35.408-27.202-31.404m-280.147 7.398c15.048 5.243 15.225 28.833.247 32.945-.935.257-2.4.669-3.255.916-5.444 1.573-13.97-3.202-17.167-9.613-1.23-2.468-1.278-2.748-1.278-7.509v-4.945l1.565-3.091c3.783-7.47 12.491-11.281 19.888-8.703m291.656.977c14.256 7.219 12.035 29.052-3.309 32.53-3.237.734-4.327.793-5.945.321-.91-.265-2.375-.688-3.255-.939-9.029-2.58-13.998-15.349-9.429-24.234 4.207-8.181 14.103-11.645 21.938-7.678M195.4 165.58c-9.459 1.203-18.744 6.949-24.028 14.871-15.634 23.438.607 54.114 28.628 54.072 5.586-.009 6.514-.142 11.4-1.642 8.998-2.763 18.718-12.483 21.481-21.481 1.5-4.886 1.633-5.814 1.642-11.4.032-21.157-18.085-37.096-39.123-34.42m11.713 8.228c7.518 2.619 15.387 9.328 17.438 14.867.311.839.944 2.512 1.407 3.719 3.375 8.797-.79 22.427-8.771 28.699-11.072 8.702-29.56 7.352-37.269-2.722-.505-.66-1.389-1.779-1.964-2.486-6.441-7.912-6.44-23.571 0-31.825 5.966-7.645 12.24-10.75 21.846-10.812 4.012-.026 6.086.133 7.313.56M29.8 207.971c-11.186 3.987-15.752 12.028-16.092 28.337l-.185 8.909 1.591 1.591 1.592 1.592h38.558c42.796 0 39.795.193 40.978-2.639.69-1.652.781-14.374.123-17.255-2.563-11.225-8.134-18.131-16.731-20.741-3.1-.941-47.126-.759-49.834.206m288.4.797c-6.501 2.337-13.41 10.761-14.672 17.889-.228 1.289-.498 6.139-.599 10.779l-.185 8.437 1.054 1.252c1.758 2.089 1.386 2.07 41.515 2.073 40.381.002 39.365.053 40.835-2.045.877-1.252.954-17.812.097-20.953-2.132-7.82-6.746-13.695-13.045-16.611l-3-1.389-25-.075c-23.164-.07-25.147-.023-27 .643m-241.228 6.818c.675.212 1.751.493 2.391.624 1.296.264 6.37 4.924 7.289 6.694 1.9 3.661 3.189 16.405 1.749 17.295-.853.527-66.799.301-67.44-.231-1.267-1.052-.358-11.155 1.329-14.768 2.617-5.604 4.287-7.243 9.71-9.525 1.309-.551 43.239-.634 44.972-.089m291.365.231c5.178 1.803 8.434 5.198 9.96 10.383 1.248 4.243 1.726 12.951.755 13.757-.843.699-66.44.717-67.283.017-.821-.681-.789-10.31.043-12.698 2.161-6.204 5.548-9.843 10.788-11.591 2.145-.715 43.648-.596 45.737.132M93.8 257.223c-15.022 2.333-24.47 20.156-18.082 34.11.974 2.127 4.493 7.067 5.035 7.067.162 0 1.199.772 2.305 1.716 12.372 10.56 33.122 3.482 37.275-12.716 1.077-4.2 1.362-6.252 1.091-7.87-.159-.952-.434-2.63-.61-3.73-1.951-12.182-14.154-20.574-27.014-18.577m204.627-.014c-2.578.544-6.781 1.993-7.051 2.43-.128.207-1.082.807-2.12 1.333-4.271 2.164-9.053 9.556-10.11 15.628-.942 5.414-.897 6.346.556 11.6 1.154 4.172 5.183 10.286 7.912 12.009.835.527 1.637 1.15 1.781 1.383 1.786 2.89 14.78 4.801 20.292 2.985 17.36-5.72 22.383-28.613 9.043-41.217-5.182-4.895-13.835-7.517-20.303-6.151m-196.49 7.408c12.778 4.45 16.472 19.798 6.995 29.063-15.683 15.331-38.161-8.35-23.364-24.614 3.918-4.305 11.143-6.269 16.369-4.449m205.6.8c12.169 4.238 15.64 19.073 6.674 28.525-14.646 15.439-36.879-4.555-24.893-22.386 3.816-5.677 11.811-8.371 18.219-6.139m-114.349 32.345c-10.63 4.027-16.018 11.359-17.058 23.213-.214 2.44-.139 2.832 1.658 8.614 2.231 7.181 9.006 13.735 15.683 15.17 1.281.275 2.975.687 3.765.914 3.453.993 11.216-.855 15.402-3.667 6.046-4.062 8.598-7.996 10.957-16.89 1.907-7.189-3.054-19.259-9.74-23.697-5.866-3.893-15.528-5.603-20.667-3.657m11.118 6.808c11.472 3.054 16.238 17.458 9.013 27.244-8.229 11.146-25.613 7.761-29.542-5.753-.634-2.18-.626-2.784.111-8.264 1.255-9.332 11.096-15.708 20.418-13.227M70.85 313.504c-10.217 3.521-15.25 12.998-15.25 28.715 0 8.801.116 9.407 1.992 10.377 2.075 1.073 77.333.891 79.108-.192l1.3-.792v-9.787c0-13.076-.431-14.719-5.83-22.225-.554-.77-1.674-1.89-2.489-2.489a1848.3 1848.3 0 0 0-2.376-1.742c-.492-.36-1.932-1.081-3.2-1.602l-2.305-.948-24.6.041c-20.81.035-24.87.134-26.35.644m204.624.904c-7.861 2.988-12.231 8.749-14.639 19.298-.718 3.143-.571 17.521.189 18.607 1.522 2.173-.191 2.087 41.369 2.087 41.852 0 40.748.059 41.61-2.207.795-2.092.49-17.461-.414-20.833-2.223-8.298-6.867-13.907-13.911-16.804l-2.278-.937-25 .029c-23.219.026-25.137.08-26.926.76m52.666 6.978c3.613 1.83 6.457 5.323 8.043 9.877.773 2.217.88 13.114.137 13.857-.859.859-66.461.676-67.171-.188-1.479-1.799.001-15.225 1.886-17.11.311-.311.565-.732.565-.937 0-.76 3.353-4.148 4.949-5.002 3.455-1.848 3.312-1.838 26.851-1.759l22.4.076 2.34 1.186m-205.94-.013c3.73 1.799 6.918 5.57 8.189 9.685.96 3.109 1.198 13.195.331 14.062-.722.722-65.878.692-66.866-.031-.797-.583-.784-9.949.016-12.689 1.54-5.271 5.418-9.842 9.679-11.41 1.143-.42 6.243-.539 24.051-.558l22.6-.024 2 .965m52 32.057c-7.586 2.72-13.95 10.126-15.614 18.17-.159.77-.366 5.52-.459 10.556l-.17 9.156 1.097 1.144 1.096 1.144h78.932l1.359-.916 1.359-.915.124-7.985c.152-9.773-.395-13.144-2.997-18.471-2.782-5.698-8.326-10.575-13.575-11.942-3.232-.842-48.786-.789-51.152.059m51.2 8.123c5.807 2.788 8.565 8.082 8.896 17.074.274 7.441 4.78 6.573-34.11 6.573h-32.958l-.463-.866c-.314-.586-.404-2.616-.28-6.3.276-8.153 3.359-13.87 8.892-16.487l2.423-1.146H223l2.4 1.152"/><path fill="#fbfbfb" d="M0 200v200h400V0H0v200M207.058 7.244c4.272 1.316 10.281 5.151 11.398 7.276.255.484.896 1.401 1.426 2.037 5.72 6.875 6.282 19.819 1.218 28.043-10.12 16.431-34.052 15.759-42.734-1.2-2.677-5.229-3.799-11.371-2.805-15.354.199-.795.569-2.342.823-3.436 3.037-13.102 17.652-21.376 30.674-17.366m-9.258 7.828c-19.767 4.424-17.608 32.627 2.497 32.609 14.508-.013 21.135-18.011 10.435-28.338-3.509-3.387-8.911-5.171-12.932-4.271M102.281 43.15c10.596 2.013 19.754 13.213 19.828 24.25.15 22.387-26.346 34.187-41.682 18.563-17.442-17.77-2.315-47.404 21.854-42.813m203.788-.318c4.578.928 7.057 1.874 9.719 3.71 20.649 14.237 11.382 46.249-13.388 46.249-12.126 0-22.127-8.408-24.014-20.191-.176-1.1-.451-2.778-.61-3.73-.271-1.623-.05-3.214 1.124-8.07 2.788-11.532 15.957-20.241 27.169-17.968M93.132 51.811c-12.01 3.822-15.393 19.466-6.092 28.167 9.434 8.825 24.09 3.466 26.191-9.577 1.824-11.329-9.629-21.922-20.099-18.59m205.034-.016c-8.201 2.59-13.547 13.076-10.796 21.178 4.885 14.386 22.812 15.389 29.486 1.648 5.943-12.236-6.007-26.831-18.69-22.826m-74.161 9.95c4.129.864 10.089 4.32 11.874 6.885a42.22 42.22 0 0 0 1.819 2.353c3.733 4.48 5.086 10.085 5.095 21.103l.007 8.686-1.241 1.414-1.242 1.414h-40.13c-44.041 0-40.885.173-41.82-2.288-.779-2.047-.442-18.248.448-21.568 1.826-6.815 5.706-12.146 11.385-15.641 1.885-1.161 2.959-1.547 6.8-2.446 2.709-.634 43.923-.557 47.005.088M326.48 98.051c8.52 1.815 15.509 9.26 18.126 19.308.9 3.453.854 19.691-.058 20.994-1.473 2.102-.33 2.047-42.375 2.047H263.12l-1.374-1.374-1.373-1.373.125-9.727c.155-11.998 1.038-15.701 4.961-20.812.628-.818 1.465-1.943 1.86-2.501 1.591-2.244 7.599-5.619 11.681-6.563 2.403-.555 44.872-.554 47.48.001M123.366 99.73c7.154 2.443 13.301 9.311 15.424 17.233 1.327 4.951 1.218 20.519-.155 22.115l-.966 1.122-39.734.11c-43.302.12-42.403.164-42.96-2.075-.615-2.465.056-18.48.895-21.359 2.717-9.333 9.959-16.428 18.017-17.653 4.558-.693 47.245-.255 49.479.507m154.895 8.845c-5.829 2.856-8.638 8.482-8.653 17.327l-.008 5.303 33.3-.103 33.3-.102-.023-4.8c-.043-9.186-2.725-14.79-8.354-17.453l-2.423-1.146-22.6.012-22.6.012-1.939.95m-65.839 19.437c1.122.6 2.024 2.594 2.427 5.361 1.27 8.731 1.274 8.74 4.709 9.87 1.453.478 3.672 1.384 4.931 2.013 3.245 1.622 3.663 1.528 9.086-2.056 7.061-4.665 6.726-4.784 17.725 6.291 9.801 9.869 9.555 9.013 4.695 16.302-3.784 5.676-3.622 4.243-1.186 10.471 2.895 7.404 2.685 7.095 5.005 7.38 6.668.82 9.821 1.581 11.086 2.675.639.552.7 1.706.7 13.281 0 11.573-.061 12.729-.7 13.287-1.244 1.084-2.569 1.598-5.06 1.96-8.25 1.2-8.277 1.213-9.479 4.539-.479 1.328-1.491 3.818-2.248 5.535-1.637 3.712-1.615 3.83 1.624 8.586 5.231 7.682 5.366 7.124-4.037 16.615-11.639 11.747-10.931 11.487-18.173 6.678-5.562-3.693-5.713-3.719-9.836-1.646-1.7.855-3.874 1.789-4.831 2.075-2.643.792-2.818 1.202-4.011 9.398-.851 5.845-.66 5.773-15.253 5.773h-12.058l-1.123-1.123c-.787-.788-1.263-1.835-1.589-3.5l-.846-4.308c-.209-1.061-.38-2.518-.38-3.238 0-1.705-.839-2.416-4.232-3.588-1.523-.526-3.758-1.424-4.968-1.996-3.145-1.486-3.75-1.372-8.078 1.522-8.096 5.413-7.038 5.649-16.446-3.669-11.521-11.411-11.441-11.188-6.676-18.5 3.661-5.619 3.606-5.356 1.959-9.259-.682-1.617-1.626-4-2.097-5.295-1.211-3.331-1.309-3.378-9.689-4.597-5.842-.85-5.773-.67-5.773-15.18v-11.984l1.118-1.197c.838-.898 1.714-1.309 3.5-1.645a303.38 303.38 0 0 0 4.313-.845c1.061-.219 2.533-.398 3.27-.398 1.674 0 2.716-1.221 3.581-4.196.342-1.177 1.161-3.28 1.82-4.672 1.701-3.596 1.622-3.97-2.002-9.532-4.383-6.726-4.433-6.315 1.545-12.718 13.621-14.59 13.129-14.37 20.83-9.282 6.019 3.976 4.92 3.979 13.936-.038.941-.419 1.948-.762 2.238-.762.977 0 1.744-1.386 1.992-3.6.698-6.212 1.67-9.647 3.024-10.687.822-.631 24.493-.724 25.657-.101m-18.178 9.517c-.197.318-.841 3.764-1.323 7.071-.309 2.128-1.512 4.455-2.622 5.075-1.393.777-3.608 1.512-4.575 1.519-.482.003-.988.186-1.124.406-.136.22-.599.4-1.029.4-.43 0-1.094.178-1.476.395-.382.217-1.685.843-2.895 1.392a81.936 81.936 0 0 0-4.4 2.197c-2.456 1.338-3.066 1.433-4.681.727-1.398-.61-7.636-4.654-7.941-5.147-.88-1.423-11.083 7.342-10.455 8.981.131.339 1.414 2.431 2.852 4.647 3.59 5.532 3.568 5.122.602 11.12-1.384 2.798-2.689 5.538-2.9 6.088-.861 2.242-1.006 2.674-1.477 4.4-1.141 4.182-2.824 5.18-10.52 6.234-3.005.411-3.08.588-3.08 7.203 0 6.789-.51 6.16 5.944 7.325 4.409.796 5.708 1.458 6.747 3.438 1.16 2.209 1.309 2.585 1.309 3.296 0 1.213 1.938 6.12 3.666 9.28 2.707 4.952 2.748 5.055 2.501 6.287-.192.963-4.103 6.973-5.739 8.82-.937 1.058-.266 2.123 3.956 6.283l4.383 4.32 1.517-.927a259.87 259.87 0 0 0 4.467-2.843c3.786-2.458 5.89-2.614 8.744-.651 1.908 1.313 6.724 3.453 9.505 4.225 4.309 1.196 5.109 1.527 6.203 2.573.649.62 1.277 1.624 1.397 2.232.12.608.383 1.915.583 2.905.2.99.476 2.52.612 3.4.501 3.237-.052 3 7.005 3 5.7 0 6.367-.071 6.548-.7.111-.385.503-2.41.87-4.5 1.048-5.963 1.614-6.865 4.982-7.937 6.322-2.012 9.272-3.241 13.6-5.668 2.601-1.459 4.55-1.386 6.693.249.727.554 2.52 1.812 3.987 2.795l2.666 1.788 1.966-1.914c7.962-7.744 7.621-7.002 5.064-11.02-4.307-6.771-4.395-7.249-2.049-11.152.84-1.398 2.031-3.801 2.647-5.341.616-1.54 1.265-3.16 1.443-3.6.316-.784.609-2.006 1.055-4.4.357-1.923 1.612-3 3.498-3.002.896-.001 2.26-.161 3.03-.354.77-.193 2.705-.569 4.3-.834l2.9-.483v-12.98l-3.9-.69c-7.089-1.255-8.187-1.905-9.25-5.482-.291-.976-.69-2.088-.889-2.47-.199-.382-.361-.969-.361-1.305 0-.336-.163-.923-.362-1.305-.198-.382-1.02-2.123-1.825-3.869-.805-1.745-1.847-3.712-2.315-4.37-1.619-2.273-1.213-4.276 1.809-8.929 3.449-5.31 3.551-4.636-1.483-9.714-5.139-5.182-4.183-4.905-7.989-2.313-5.933 4.04-7.204 4.312-10.457 2.239-3.043-1.939-7.341-3.697-12.678-5.184-3.605-1.005-4.256-1.995-5.491-8.355-.491-2.53-1.099-4.732-1.351-4.894-.632-.406-12.162-.384-12.414.023M57.923 151.211l3.877.854c17.47 3.867 23.757 28.485 10.723 41.985-22.587 23.397-56.28-9.904-35.43-35.018 2.275-2.74 10.405-7.385 13.078-7.472.676-.022 1.679-.184 2.229-.36 1.446-.463 3.376-.459 5.523.011m291.606.439c23.262 5.694 27.604 36.524 6.629 47.07-24.888 12.514-47.761-19.104-28.981-40.061.984-1.098 7.304-5.459 7.912-5.459.162 0 1.199-.346 2.303-.77 4.476-1.715 7.519-1.911 12.137-.78m-301.135 9.728c-12.336 6.336-12.096 24.136.406 30.081 13.689 6.509 27.765-9.613 20.204-23.141-4.117-7.366-13.578-10.552-20.61-6.94m290.206-.155c-14.177 7.167-12.252 27.209 2.998 31.225 12.408 3.267 23.365-10.918 17.718-22.937-3.871-8.238-13.329-12.022-20.716-8.288m-133.2 3.767c29.175 5.243 40.363 40.343 19.282 60.49-20.905 19.978-54.525 8.668-59.692-20.08-4.129-22.973 17.437-44.539 40.41-40.41m-12 9.489c-13.012 4.509-19.4 12.92-19.4 25.546 0 15.382 10.68 25.979 26.175 25.973 30.185-.011 35.961-41.311 7.164-51.219-2.552-.878-11.703-1.075-13.939-.3M80.027 207.038c7.372 2.166 14.597 10.121 16.313 17.962l.849 3.877c.849 3.877.525 15.528-.489 17.537-1.5 2.972 1.322 2.791-41.768 2.683L16.064 249l-1.07-1c-2.059-1.924-2.194-2.586-2.189-10.68.012-16.559 5.006-25.827 16.15-29.969 3.261-1.213 47.096-1.481 51.072-.313m291.327.946c11.334 3.9 16.246 12.647 16.246 28.933 0 9.856-.148 10.697-2.09 11.881-1.806 1.102-78.635 1.275-80.748.183-4.16-2.152-4.025-19.712.22-28.491 2.829-5.853 7.983-10.763 13.183-12.56 3.3-1.141 49.854-1.093 53.189.054m-265.991 49.234c17.46 5.393 22.486 28.965 8.923 41.848-9.055 8.601-23.278 9.165-32.242 1.279-.966-.85-1.885-1.545-2.043-1.545-1.508 0-5.733-7.995-6.609-12.508-3.625-18.664 13.946-34.642 31.971-29.074m205.142.327c22.079 7.51 22.048 39.957-.046 47.603-6.808 2.356-18.435.635-21.95-3.248-.389-.43-1.187-1.03-1.774-1.333-2.234-1.156-6.534-7.792-7.692-11.871-1.604-5.656-1.661-6.645-.688-12.096 2.679-15.012 17.759-23.95 32.15-19.055M92.2 265.618c-11.545 4.479-14.157 19.088-4.964 27.76 14.688 13.856 35.419-7.973 21.953-23.115-4.33-4.869-11.417-6.807-16.989-4.645m204.491.95c-12.719 5.231-13.399 24.049-1.091 30.197 14.982 7.483 29.678-11.293 19.494-24.907-4.22-5.641-12.065-7.896-18.403-5.29m-88.913 30.781c21.679 7.869 22.638 38.478 1.485 47.403-15.623 6.593-33.951-5.812-34.051-23.046-.049-8.459 5.18-17.991 12.099-22.059 5.912-3.475 14.553-4.445 20.467-2.298M196 305.372c-8.352 2.324-13.721 11.907-11.425 20.389 3.476 12.844 20 16.213 28.004 5.711 9.302-12.206-2.085-30.133-16.579-26.1m-72.628 7.28c6.298 2.146 12.027 8.176 14.268 15.017.917 2.799.96 3.414.96 13.687v10.757l-1.129.843c-1.128.843-1.18.844-39.4.96-41.636.126-40.497.168-42.139-1.589l-1.132-1.212v-8.765c0-16.743 4.825-25.514 16.378-29.77 2.367-.872 49.615-.806 52.194.072m205.653.819c11.247 3.832 16.176 12.86 16.174 29.622-.002 10.069-.228 10.907-3.145 11.693-3.36.904-78.869.352-80.12-.586-2.21-1.658-2.334-2.239-2.334-10.956 0-9.534.531-12.57 3.12-17.844 2.833-5.771 7.129-9.729 12.88-11.868 2.746-1.022 50.447-1.076 53.425-.061m-254.059 7.924c-5.615 1.773-9.256 6.147-10.913 13.111-.612 2.573-.594 9.193.027 9.814.759.759 65.649.688 66.28-.072.761-.917.16-10.346-.845-13.247-1.821-5.261-4.968-8.395-9.697-9.654-2.851-.759-42.429-.717-44.852.048M225.4 352.542c8.048 2.145 14.831 10.122 16.751 19.698.916 4.574.934 18.775.025 20.073-1.524 2.176.299 2.087-42.596 2.087h-39.66l-1.381-1.381-1.38-1.38.163-9.32c.089-5.125.36-10.219.601-11.319 1.812-8.268 8.113-15.491 16.073-18.426 2.076-.765 48.543-.794 51.404-.032"/><path fill="#8d081c" d="M114.134 68c0 1.65.071 2.325.157 1.5.087-.825.087-2.175 0-3-.086-.825-.157-.15-.157 1.5m-33.241 1.6c0 .77.082 1.085.183.7.1-.385.1-1.015 0-1.4-.101-.385-.183-.07-.183.7m97.26.621c-3.203.69-6.59 2.89-7.973 5.179-1.85 3.062-2.626 4.738-3.181 6.867-.744 2.86-.829 11.343-.119 12.053.695.695 66.345.695 67.04 0 .708-.708.614-8.494-.143-11.756-1.299-5.6-3.982-9.28-8.497-11.654-2.004-1.053-42.678-1.648-47.127-.689M80.4 106.783c-3.19.147-6.432.478-7.204.735-2.782.925-8.396 7.696-8.396 10.126 0 .39-.18.82-.4.956-.735.454-.516 12.87.233 13.157 1.309.503 66.378.272 66.887-.237.304-.304.48-1.834.48-4.171 0-11.829-2.847-17.218-10.363-19.612l-3.437-1.095-16-.063c-8.8-.035-18.61.057-21.8.204m39.2.809c.99.262 2.16.619 2.6.792.44.174 1.285.511 1.879.748 4.792 1.917 7.099 7.269 7.24 16.799l.081 5.469H64.6l-.118-5.4c-.199-9.11 3.342-16.182 9.044-18.063 3.296-1.088 42.17-1.379 46.074-.345M321.346 176.2c.001 2.2.068 3.049.149 1.887.081-1.163.081-2.963-.002-4-.082-1.038-.148-.087-.147 2.113m-240.453 103c0 .77.082 1.085.183.7.1-.385.1-1.015 0-1.4-.101-.385-.183-.07-.183.7m33.238 2.2c.002 1.54.074 2.121.161 1.291.087-.83.085-2.09-.003-2.8-.089-.71-.16-.031-.158 1.509m-33.238 1.8c0 .77.082 1.085.183.7.1-.385.1-1.015 0-1.4-.101-.385-.183-.07-.183.7m218.614 22.29c.719.089 1.799.087 2.4-.004s.013-.164-1.307-.162c-1.32.002-1.812.077-1.093.166M279.6 320.524c-3.301 1.122-8 4.858-8 6.361 0 .205-.254.626-.565.937-1.885 1.885-3.365 15.311-1.886 17.11.71.864 66.312 1.047 67.171.188.743-.743.636-11.64-.137-13.857-1.586-4.554-4.43-8.047-8.043-9.877l-2.34-1.186-22.4-.076c-16.436-.055-22.773.051-23.8.4m48.088 1.249c3.518 1.621 6.458 5.112 7.893 9.372 1.09 3.234 1.227 13.413.186 13.812-1.309.502-65.578.272-66.087-.237-.827-.827-.629-10.171.278-13.084 1.383-4.443 4.169-7.924 7.842-9.796l2-1.019 22.888-.011 22.888-.01 2.112.973m-152.311 39.774c-5.533 2.617-8.616 8.334-8.892 16.487-.124 3.684-.034 5.714.28 6.3l.463.866h32.958c38.89 0 34.384.868 34.11-6.573-.331-8.992-3.089-14.286-8.896-17.074l-2.4-1.152h-45.2l-2.423 1.146"/><path fill="#2bb273" d="M192.453 7.424c-8.095 2.757-14.251 9.341-16.069 17.186a256.427 256.427 0 0 1-.823 3.436c-.702 2.813-.454 5.694.946 10.954 2.052 7.716 10.083 15.284 18.093 17.052 18.982 4.188 34.828-14.063 28.7-33.056-.6-1.857-2.351-5.156-3.418-6.439-.53-.636-1.171-1.553-1.426-2.037-.492-.936-5.448-4.807-7.456-5.824-5.024-2.544-13.172-3.103-18.547-1.272m14.777.775c3.61 1.214 4.594 1.684 6.255 2.991.707.555 1.846 1.44 2.53 1.965 1.193.915 2.179 2.214 4.408 5.799 8.117 13.063 1.011 31.736-13.623 35.8-.99.275-2.353.668-3.028.873-.676.205-2.373.373-3.772.373-1.399 0-3.096-.168-3.772-.373-.675-.205-2.038-.598-3.028-.872-7.068-1.962-14.032-8.867-15.888-15.755-1.749-6.491-1.749-8.318.001-14.8 3.398-12.587 17.555-20.159 29.917-16.001m-10.63 6.374c-4.412 1.248-4.928 1.498-7.161 3.471-12.15 10.73-5.621 29.8 10.368 30.286l4.407.134 3.288-1.663c10.951-5.538 12.586-20.175 3.196-28.617-2.571-2.311-3.607-2.751-10.298-4.371-.33-.08-2.04.262-3.8.76m6.974.878c18.267 4.527 15.452 32.213-3.277 32.23-20.105.018-22.264-28.185-2.497-32.609 1.615-.362 3.209-.257 5.774.379M93.6 42.856c-14.591 3.25-23.539 16.823-20.039 30.393 7.582 29.389 48.751 24.429 48.548-5.849-.097-14.474-15.229-27.502-28.509-24.544m205 .014c-10.199 2.353-17.552 9.046-19.7 17.93-1.174 4.856-1.395 6.447-1.124 8.07.159.952.434 2.63.61 3.73 4.282 26.732 42.021 27.04 48.201.393 3.868-16.678-12.041-33.801-27.987-30.123m-197.906.774c6.578 1.533 8.512 2.61 13.484 7.511 8.639 8.515 9.633 21.099 2.483 31.425-9.683 13.985-32.374 12.281-39.937-2.998-3.853-7.784-4.021-15.573-.489-22.727C79.332 50.58 87.645 44.05 92.6 44c.66-.007 1.47-.187 1.8-.4.808-.522 3.958-.5 6.294.044m206.706.278c14.798 2.924 23.73 21.737 16.48 34.711-.264.473-.961 1.739-1.548 2.813-6.689 12.235-27.256 14.275-36.951 3.665-11.671-12.771-7.388-33.475 8.259-39.927 1.578-.651 3.34-1.187 3.915-1.19.575-.003 1.315-.188 1.645-.41.67-.451 5.136-.267 8.2.338M92.2 51.34c-12.187 4.561-15.182 19.682-5.732 28.941 8.456 8.286 21.002 5.689 26.217-5.427 6.122-13.05-7.295-28.451-20.485-23.514m204.641.052c-8.708 3.233-13.463 15.056-9.51 23.645 6.122 13.301 23.951 13.223 30.343-.132 6.401-13.373-7.101-28.612-20.833-23.513m-193.519 1.106c10.784 5.005 13.462 19.272 5.112 27.237C94.293 93.223 73.552 74.218 84.714 58c4.106-5.964 12.355-8.403 18.608-5.502m203.382-.689c9.5 2.821 14.455 13.954 10.152 22.812-5.302 10.917-18.075 13.148-25.838 4.514-10.806-12.018.559-31.819 15.686-27.326M177 61.657c-3.841.899-4.915 1.285-6.8 2.446-5.679 3.495-9.559 8.826-11.385 15.641-.89 3.32-1.227 19.521-.448 21.568.935 2.461-2.221 2.288 41.82 2.288h40.13l1.242-1.414 1.241-1.414-.007-8.686c-.009-11.018-1.362-16.623-5.095-21.103a42.22 42.22 0 0 1-1.819-2.353c-1.785-2.565-7.745-6.021-11.874-6.885-3.082-.645-44.296-.722-47.005-.088m47.8 1.006c11.212 2.475 17.2 12.722 17.2 29.434v8.511l-1.016 1.096-1.016 1.096h-79.947l-.611-1.18c-1.019-1.972-.872-17.858.203-21.869 2.047-7.638 8.742-15.215 14.655-16.584a117.67 117.67 0 0 0 3.132-.772c1.714-.462 45.206-.216 47.4.268M279 98.05c-4.082.944-10.09 4.319-11.681 6.563-.395.558-1.232 1.683-1.86 2.501-3.923 5.111-4.806 8.814-4.961 20.812l-.125 9.727 1.373 1.373 1.374 1.374h39.053c42.045 0 40.902.055 42.375-2.047.912-1.303.958-17.541.058-20.994-2.617-10.048-9.606-17.493-18.126-19.308-2.608-.555-45.077-.556-47.48-.001m48.646 1.097c7.005 2.41 12.316 7.51 14.844 14.253 1.825 4.869 1.948 5.902 1.826 15.384l-.116 8.985-1.359.915-1.359.916h-78.038l-1.122-1.075-1.122-1.075v-9.701c0-5.336.156-9.798.347-9.917.192-.118.458-.893.592-1.723 1.075-6.648 7.584-14.007 14.661-16.575l3-1.089 22.837-.023c21.292-.02 22.985.029 25.009.725m-253.759.076c-8.058 1.225-15.3 8.32-18.017 17.653-.839 2.879-1.51 18.894-.895 21.359.557 2.239-.342 2.195 42.96 2.075l39.734-.11.966-1.122c1.373-1.596 1.482-17.164.155-22.115-2.123-7.922-8.27-14.79-15.424-17.233-2.234-.762-44.921-1.2-49.479-.507m49.723 1.443c6.561 2.461 12.142 8.439 13.945 14.934.274.99.667 2.353.872 3.028.205.676.373 5.229.373 10.119v8.889l-.982.982-.982.982H97.392c-39.696 0-40.598-.03-41.486-1.36-.162-.242-.297-4.166-.3-8.72-.006-8.406.154-9.698 1.848-14.92 2.229-6.87 9.983-13.722 16.546-14.62 5.609-.768 47.271-.192 49.61.686m155.79 6.604c-4.153 1.345-8.082 5.773-9.716 10.952-1.026 3.251-1.304 12.398-.404 13.298.695.695 66.345.695 67.04 0 .706-.706.63-9.706-.107-12.533-1.433-5.502-4.865-9.726-9.229-11.359-2.462-.921-44.86-1.24-47.584-.358m48.423 1.477c5.629 2.663 8.311 8.267 8.354 17.453l.023 4.8-33.3.102-33.3.103.008-5.303c.015-8.845 2.824-14.471 8.653-17.327l1.939-.95 22.6-.012 22.6-.012 2.423 1.146m-141.058 19.366c-1.354 1.04-2.326 4.475-3.024 10.687-.248 2.214-1.015 3.6-1.992 3.6-.29 0-1.297.343-2.238.762-9.016 4.017-7.917 4.014-13.936.038-7.701-5.088-7.209-5.308-20.83 9.282-5.978 6.403-5.928 5.992-1.545 12.718 3.624 5.562 3.703 5.936 2.002 9.532-.659 1.392-1.478 3.495-1.82 4.672-.865 2.975-1.907 4.196-3.581 4.196-.737 0-2.209.179-3.27.398a303.38 303.38 0 0 1-4.313.845c-1.786.336-2.662.747-3.5 1.645l-1.118 1.197v11.984c0 14.51-.069 14.33 5.773 15.18 8.38 1.219 8.478 1.266 9.689 4.597a138.972 138.972 0 0 0 2.097 5.295c1.647 3.903 1.702 3.64-1.959 9.259-4.765 7.312-4.845 7.089 6.676 18.5 9.408 9.318 8.35 9.082 16.446 3.669 4.328-2.894 4.933-3.008 8.078-1.522 1.21.572 3.445 1.47 4.968 1.996 3.393 1.172 4.232 1.883 4.232 3.588 0 .72.171 2.177.38 3.238l.846 4.308c.326 1.665.802 2.712 1.589 3.5l1.123 1.123h12.058c14.593 0 14.402.072 15.253-5.773 1.193-8.196 1.368-8.606 4.011-9.398.957-.286 3.131-1.22 4.831-2.075 4.123-2.073 4.274-2.047 9.836 1.646 7.242 4.809 6.534 5.069 18.173-6.678 9.403-9.491 9.268-8.933 4.037-16.615-3.239-4.756-3.261-4.874-1.624-8.586.757-1.717 1.769-4.207 2.248-5.535 1.202-3.326 1.229-3.339 9.479-4.539 2.491-.362 3.816-.876 5.06-1.96.639-.558.7-1.714.7-13.287 0-11.575-.061-12.729-.7-13.281-1.265-1.094-4.418-1.855-11.086-2.675-2.32-.285-2.11.024-5.005-7.38-2.436-6.228-2.598-4.795 1.186-10.471 4.86-7.289 5.106-6.433-4.695-16.302-10.999-11.075-10.664-10.956-17.725-6.291-5.423 3.584-5.841 3.678-9.086 2.056-1.259-.629-3.478-1.535-4.931-2.013-3.435-1.13-3.439-1.139-4.709-9.87-.403-2.767-1.305-4.761-2.427-5.361-1.164-.623-24.835-.53-25.657.101m26.123 1.524c.436.584.949 2.243 1.175 3.8 1.396 9.621 1.192 9.268 6.337 10.982 1.21.403 3.086 1.194 4.168 1.757 3.074 1.6 3.819 1.425 9.232-2.169 6.868-4.56 5.763-4.943 16.5 5.732 9.873 9.817 9.558 8.85 5.06 15.52-3.574 5.301-3.631 5.661-1.64 10.405.77 1.835 1.719 4.236 2.108 5.336 1.017 2.875 1.483 3.276 4.092 3.52 4.214.395 7.856 1.098 9.273 1.792l1.407.688v25.114l-1.037.774c-.947.707-2.116.96-8.603 1.858-3.469.481-4.726 1.772-6.041 6.205-.335 1.127-1.02 2.861-1.522 3.854-1.739 3.433-1.565 4.269 2.003 9.621 4.555 6.834 4.839 5.953-5.1 15.835-10.784 10.723-9.627 10.343-16.865 5.539-6.014-3.991-5.089-3.826-9.388-1.673-1.896.95-4.257 1.972-5.247 2.272-3.414 1.034-3.412 1.03-4.737 10.164-.226 1.557-.739 3.216-1.175 3.8l-.774 1.037-11.757.107c-15.552.141-14.577.82-15.912-11.093-.293-2.611-1.283-3.464-5.563-4.789-1.475-.457-3.268-1.188-3.985-1.624-3.204-1.95-4.304-1.686-10.654 2.56-5.8 3.878-4.886 4.229-14.727-5.661-10.387-10.44-10.115-9.617-5.513-16.648 3.46-5.288 3.584-5.8 2.202-9.096A206.621 206.621 0 0 1 144.14 220c-.547-1.43-1.133-2.87-1.304-3.2-.455-.88-2.359-1.722-4.636-2.049l-4.763-.688c-1.557-.226-3.216-.739-3.8-1.175l-1.037-.774-.106-11.996c-.123-13.936-.198-13.633 3.58-14.422 5.2-1.086 6.478-1.296 7.887-1.296 1.956 0 2.868-1.009 4.159-4.6.554-1.54 1.472-3.79 2.039-5 1.709-3.64 1.628-3.977-2.425-10.063-4.203-6.31-4.445-5.685 6.664-17.207 7.669-7.954 8.246-8.09 15.038-3.534 6.08 4.079 5.178 4.093 14.824-.231.694-.311 1.434-.565 1.647-.565 1.159 0 2.493-1.712 2.493-3.199 0-2.533 1.453-9.427 2.257-10.707l.569-.905 12.444.105 12.444.106.774 1.037m-19.249 7.89c-.214.4-.683 2.425-1.042 4.5-1.124 6.499-1.575 7.108-6.197 8.373-4.132 1.131-7.657 2.591-11.6 4.805-3.017 1.693-3.97 1.471-9.504-2.215-3.918-2.609-4.65-2.962-5.204-2.513-1.467 1.189-9.292 9.311-9.292 9.645 0 .199.54 1.162 1.2 2.14.66.978 1.2 1.865 1.2 1.971 0 .105.81 1.4 1.8 2.875 2.27 3.383 2.258 3.651-.387 8.819-2.766 5.404-3.574 7.327-4.231 10.073-1.016 4.249-1.55 4.626-8.582 6.061-1.1.225-2.675.58-3.5.79l-1.5.381v13.471l1.1.415c.605.229 2.81.726 4.9 1.105 6.307 1.145 6.226 1.062 8.407 8.577.698 2.402 3.485 8.294 4.655 9.838 1.725 2.276 1.57 2.68-4.209 10.955l-1.747 2.501 4.941 4.953c5.762 5.776 4.84 5.459 8.565 2.945 6.537-4.411 7.562-4.667 10.707-2.673 3.346 2.121 6.29 3.335 12.775 5.268 3.716 1.107 4.064 1.749 5.509 10.155.571 3.321.425 3.258 7.597 3.258 7.546 0 6.958.432 8.225-6.047 1.111-5.678 1.585-6.389 4.924-7.372 2.924-.861 4.335-1.342 6.051-2.062 2.449-1.028 6.977-3.377 7.631-3.958 1.128-1.002 3.586-.676 5.623.745 5.799 4.048 6.757 4.694 6.961 4.694.394 0 9.785-9.526 9.785-9.925 0-.551-.738-1.866-2.962-5.275-3.279-5.026-3.539-6.443-1.617-8.8 1.01-1.238 3.397-6.358 4.197-9 .266-.88.641-2.013.833-2.519.192-.505.349-1.422.349-2.038 0-1.943 1.169-2.528 7.02-3.51 7.625-1.281 6.98-.51 6.98-8.333 0-7.691.466-7.002-5.4-7.983-6.531-1.093-7.166-1.671-9.031-8.217-.282-.99-.632-1.98-.778-2.2-.145-.22-.565-1.175-.933-2.122-.368-.948-1.387-2.989-2.264-4.536-2.2-3.884-2.133-4.361 1.422-10.02 2.576-4.099 2.941-4.895 2.5-5.443-1.33-1.656-9.162-9.279-9.533-9.279-.49 0-6.218 3.81-6.56 4.363-.798 1.292-4.206 1.715-5.925.737a1233.48 1233.48 0 0 0-3.098-1.758c-1.819-1.029-7.626-3.345-8.4-3.35-.729-.005-3.068-.831-4.3-1.518-1.485-.829-2.031-2.077-2.917-6.666-1.224-6.344-.469-5.808-8.183-5.808-5.943 0-6.609.07-6.961.727m13.019-.021c.252.162.86 2.364 1.351 4.894 1.235 6.36 1.886 7.35 5.491 8.355 5.337 1.487 9.635 3.245 12.678 5.184 3.253 2.073 4.524 1.801 10.457-2.239 3.806-2.592 2.85-2.869 7.989 2.313 5.034 5.078 4.932 4.404 1.483 9.714-3.022 4.653-3.428 6.656-1.809 8.929.468.658 1.51 2.625 2.315 4.37.805 1.746 1.627 3.487 1.825 3.869.199.382.362.969.362 1.305 0 .336.162.923.361 1.305.199.382.598 1.494.889 2.47 1.063 3.577 2.161 4.227 9.25 5.482l3.9.69v12.98l-2.9.483c-1.595.265-3.53.641-4.3.834-.77.193-2.134.353-3.03.354-1.886.002-3.141 1.079-3.498 3.002-.446 2.394-.739 3.616-1.055 4.4-.178.44-.827 2.06-1.443 3.6-.616 1.54-1.807 3.943-2.647 5.341-2.346 3.903-2.258 4.381 2.049 11.152 2.557 4.018 2.898 3.276-5.064 11.02l-1.966 1.914-2.666-1.788c-1.467-.983-3.26-2.241-3.987-2.795-2.143-1.635-4.092-1.708-6.693-.249-4.328 2.427-7.278 3.656-13.6 5.668-3.368 1.072-3.934 1.974-4.982 7.937-.367 2.09-.759 4.115-.87 4.5-.181.629-.848.7-6.548.7-7.057 0-6.504.237-7.005-3-.136-.88-.412-2.41-.612-3.4-.2-.99-.463-2.297-.583-2.905-.12-.608-.748-1.612-1.397-2.232-1.094-1.046-1.894-1.377-6.203-2.573-2.781-.772-7.597-2.912-9.505-4.225-2.854-1.963-4.958-1.807-8.744.651a259.87 259.87 0 0 1-4.467 2.843l-1.517.927-4.383-4.32c-4.222-4.16-4.893-5.225-3.956-6.283 1.636-1.847 5.547-7.857 5.739-8.82.247-1.232.206-1.335-2.501-6.287-1.728-3.16-3.666-8.067-3.666-9.28 0-.711-.149-1.087-1.309-3.296-1.039-1.98-2.338-2.642-6.747-3.438-6.454-1.165-5.944-.536-5.944-7.325 0-6.615.075-6.792 3.08-7.203 7.696-1.054 9.379-2.052 10.52-6.234.471-1.726.616-2.158 1.477-4.4.211-.55 1.516-3.29 2.9-6.088 2.966-5.998 2.988-5.588-.602-11.12-1.438-2.216-2.721-4.308-2.852-4.647-.628-1.639 9.575-10.404 10.455-8.981.305.493 6.543 4.537 7.941 5.147 1.615.706 2.225.611 4.681-.727a81.936 81.936 0 0 1 4.4-2.197c1.21-.549 2.513-1.175 2.895-1.392.382-.217 1.046-.395 1.476-.395.43 0 .893-.18 1.029-.4.136-.22.642-.403 1.124-.406.967-.007 3.182-.742 4.575-1.519 1.11-.62 2.313-2.947 2.622-5.075.482-3.307 1.126-6.753 1.323-7.071.252-.407 11.782-.429 12.414-.023M52.4 151.2c-.55.176-1.553.338-2.229.36-2.673.087-10.803 4.732-13.078 7.472-20.85 25.114 12.843 58.415 35.43 35.018 13.034-13.5 6.747-38.118-10.723-41.985l-3.877-.854c-2.147-.47-4.077-.474-5.523-.011m289 .086c-1.1.206-2.903.721-4.008 1.144-1.104.424-2.141.77-2.303.77-.608 0-6.928 4.361-7.912 5.459-14.668 16.369-3.71 42.941 17.709 42.941 17.938 0 29.81-18.877 22.513-35.8-4.149-9.623-16.204-16.353-25.999-14.514m-283.446.679c.795.201 2.436.585 3.646.854 4.702 1.043 10.233 5.112 13.24 9.74 6.454 9.931 5.051 23.232-3.299 31.274-21.302 20.516-52.266-7.355-35.553-32.001 3.062-4.516 10.346-9.372 14.191-9.46.671-.016 1.581-.183 2.021-.372 1.081-.464 3.983-.482 5.754-.035m292.073.587c24.604 6.66 25.169 40.366.797 47.604-19.005 5.644-36.157-16.449-27.136-34.956 2.98-6.114 11.501-12.699 16.6-12.828.612-.016 1.472-.183 1.912-.372 1.409-.605 4.306-.401 7.827.552m-301.996 8.245c-11.702 6.21-12.915 22.451-2.231 29.848 3.742 2.591 8.527 3.847 11.445 3.004.855-.247 2.32-.664 3.255-.927 9.158-2.575 14.15-15.292 9.529-24.279-4.221-8.209-14.322-11.72-21.998-7.646m291.538-.983c-15.898 5.782-14.68 29.113 1.741 33.365 1.931.5 4.001.81 4.6.689 4.434-.892 6.326-1.675 9.365-3.876 7.542-5.464 8.253-18.752 1.385-25.927-3.999-4.178-11.893-6.142-17.091-4.251m-278.444 1.259c7.394 3.486 11.351 11.485 9.441 19.086-4.762 18.96-30.965 15.925-31.028-3.593-.038-12.106 11.384-20.304 21.587-15.493m290.39.284c16.893 8.507 8.17 35.853-9.917 31.091-6.575-1.732-10.411-5.724-12.238-12.737-3.249-12.472 10.771-24.087 22.155-18.354M194.4 164.988c-30.332 5.606-40.415 42.873-16.883 62.406 17.796 14.773 45.39 8.365 54.859-12.741 11.458-25.538-10.827-54.681-37.976-49.665m15.014 1.582c21.066 6.108 31.403 29.537 21.61 48.982-4.814 9.56-12.326 15.439-23.624 18.489-12.08 3.261-28.378-3.132-35.795-14.041-18.338-26.974 6.754-62.433 37.809-53.43m-18.214 7.796c-24.609 8.871-24.25 43.105.54 51.427 11.882 3.988 26.268-1.684 32.043-12.633 3.163-6 4.167-15.575 2.175-20.766a438.578 438.578 0 0 1-1.407-3.719c-2.051-5.539-9.92-12.248-17.438-14.867-3.114-1.084-12.246-.765-15.913.558m16.139.413c14.513 4.993 22.374 20.241 17.48 33.908-8.475 23.668-41.772 23.359-49.772-.461-4.798-14.285 2.868-28.381 18.353-33.747 2.236-.775 11.387-.578 13.939.3M28.955 207.351c-11.144 4.142-16.138 13.41-16.15 29.969-.005 8.094.13 8.756 2.189 10.68l1.07 1 38.868.097c43.09.108 40.268.289 41.768-2.683 1.014-2.009 1.338-13.66.489-17.537L96.34 225c-1.716-7.841-8.941-15.796-16.313-17.962-3.976-1.168-47.811-.9-51.072.313m53.758 1.618c6.944 3.289 11.398 9.663 13.652 19.537 1.369 5.999.377 17.849-1.612 19.242-1.198.839-76.718 1.016-78.544.183-4.034-1.838-3.703-20.284.513-28.531 1.884-3.686 6.276-8.275 9.469-9.892 4.566-2.313 3.669-2.247 29.409-2.175l23.8.067 3.313 1.569m235.452-1.039c-5.2 1.797-10.354 6.707-13.183 12.56-4.245 8.779-4.38 26.339-.22 28.491 2.113 1.092 78.942.919 80.748-.183 1.942-1.184 2.09-2.025 2.09-11.881 0-16.286-4.912-25.033-16.246-28.933-3.335-1.147-49.889-1.195-53.189-.054m52.759.706c11.109 3.785 15.876 12.285 15.876 28.306 0 10.304-.073 10.628-2.639 11.7-1.974.825-76.333.831-78.307.006-4.337-1.812-4.509-18.923-.278-27.741 2.552-5.318 8.37-10.863 12.888-12.282 2.796-.879 49.879-.869 52.46.011M32 215.675c-5.423 2.282-7.093 3.921-9.71 9.525-1.687 3.613-2.596 13.716-1.329 14.768.641.532 66.587.758 67.44.231 1.44-.89.151-13.634-1.749-17.295-.919-1.77-5.993-6.43-7.289-6.694a29.276 29.276 0 0 1-2.391-.624c-1.733-.545-43.663-.462-44.972.089m290.6.01c-5.24 1.748-8.627 5.387-10.788 11.591-.832 2.388-.864 12.017-.043 12.698.843.7 66.44.682 67.283-.017.971-.806.493-9.514-.755-13.757-1.526-5.185-4.782-8.58-9.96-10.383-2.089-.728-43.592-.847-45.737-.132M93.98 256.401c-18.475 2.915-27.31 25.063-15.996 40.099.952 1.265 1.86 2.3 2.017 2.3.158 0 1.077.695 2.043 1.545 13.74 12.089 35.886 3.74 39.646-14.945 3.344-16.617-11.006-31.634-27.71-28.999m204.42-.011c-10.199 1.974-18.237 10.078-20.045 20.21-.973 5.451-.916 6.44.688 12.096 1.158 4.079 5.458 10.715 7.692 11.871.587.303 1.385.903 1.774 1.333 4.747 5.245 18.715 5.797 26.599 1.053 23.097-13.902 9.553-51.648-16.708-46.563m6.649.609c8.67 1.173 15.933 6.545 19.359 14.32 2.115 4.798 2.501 13.539.78 17.681-4.485 10.8-11.254 15.909-21.745 16.415-5.556.267-12.726-1.683-14.047-3.822-.145-.234-.947-.857-1.782-1.384-12.311-7.772-11.126-32.867 1.859-39.361.92-.46 1.777-1.005 1.904-1.211.525-.849 9.902-3.356 11.272-3.014.247.062 1.327.231 2.4.376m-200.219.847c17.231 5.117 22.147 27.925 8.773 40.702-8.55 8.169-22.003 8.86-30.545 1.568-1.106-.944-2.143-1.716-2.305-1.716-1.356 0-5.706-7.738-6.449-11.472-3.692-18.554 12.864-34.327 30.526-29.082m-12.859 6.927c-11.563 4.409-14.762 19.383-6.085 28.484 6.885 7.222 16.23 7.306 23.24.209 12.332-12.483-1.034-34.839-17.155-28.693m10.476.905c11.986 4.888 14.797 18.78 5.595 27.649-11.982 11.547-30.824-1.579-25.506-17.768 2.669-8.125 12.388-12.948 19.911-9.881m194.353-.114c-13.295 5.078-14.57 25.374-1.999 31.825 17.188 8.82 32.634-13.598 19.237-27.921-3.969-4.243-11.742-6.004-17.238-3.904m10.946.85c11.35 4.247 14.295 18.157 5.734 27.082-13.678 14.261-34.847-4.614-23.829-21.247 3.781-5.709 11.65-8.246 18.095-5.835m-115.64 30.954c-9.042 3.36-14.053 9.544-16.478 20.338-2.625 11.685 7.153 26.009 19.372 28.379 22.843 4.43 38.297-21.602 24.174-40.721-5.627-7.616-18.14-11.313-27.068-7.996m18.006 1.935c25.276 12.557 12.564 51.428-15.04 45.989-11.856-2.337-21.252-16.249-18.631-27.586 2.214-9.579 5.813-14.583 13.167-18.31 4.076-2.065 4.639-2.174 10.832-2.082l5.841.086 3.831 1.903m-14.312 5.279c-6.18 1.846-11.091 7.229-11.875 13.018-.164 1.21-.417 2.901-.562 3.758-2.038 12.034 14.652 21.579 25.53 14.602 15.968-10.242 4.905-36.753-13.093-31.378m8.259.791c9.042 2.744 14.2 12.813 11.02 21.509-4.544 12.426-20.021 14.762-27.819 4.199-8.939-12.109 2.736-29.976 16.799-25.708M71.178 312.58C59.625 316.836 54.8 325.607 54.8 342.35v8.765l1.132 1.212c1.642 1.757.503 1.715 42.139 1.589 38.22-.116 38.272-.117 39.4-.96l1.129-.843v-10.757c0-10.273-.043-10.888-.96-13.687-2.241-6.841-7.97-12.871-14.268-15.017-2.579-.878-49.827-.944-52.194-.072m52.57 1.035c1.198.448 2.779 1.257 3.515 1.797.735.54 1.879 1.336 2.542 1.768 1.548 1.011 5.319 6.227 6.292 8.705 1.737 4.424 1.903 5.813 1.903 15.94v9.787l-1.3.792c-1.775 1.083-77.033 1.265-79.108.192-1.876-.97-1.992-1.576-1.992-10.377 0-15.927 4.585-24.622 15.091-28.617 3.132-1.191 49.87-1.179 53.057.013m151.852-.083c-5.751 2.139-10.047 6.097-12.88 11.868-2.589 5.274-3.12 8.31-3.12 17.844 0 8.717.124 9.298 2.334 10.956 1.251.938 76.76 1.49 80.12.586 2.917-.786 3.143-1.624 3.145-11.693.002-16.762-4.927-25.79-16.174-29.622-2.978-1.015-50.679-.961-53.425.061m54.078 1.024c7.044 2.897 11.688 8.506 13.911 16.804.904 3.372 1.209 18.741.414 20.833-.862 2.266.25 2.207-41.69 2.206-42.455-.002-40.16.129-41.503-2.38-.546-1.021-.314-16.883.29-19.819 1.737-8.435 6.644-14.61 14.022-17.644l2.278-.937h50l2.278.937m-255.93 6.39c-3.803 1.407-8.066 5.994-9.346 10.054-.277.88-.661 2.013-.853 2.519-.761 2.003-.425 11.212.425 11.667 1.184.634 66.11.57 66.746-.066.867-.867.629-10.953-.331-14.062-1.196-3.873-3.835-7.135-7.589-9.381L121 320.6l-23-.059c-16.577-.042-23.35.071-24.252.405m46.07.401c4.729 1.259 7.876 4.393 9.697 9.654 1.005 2.901 1.606 12.33.845 13.247-.631.76-65.521.831-66.28.072-.621-.621-.639-7.241-.027-9.814 1.657-6.964 5.298-11.338 10.913-13.111 2.423-.765 42.001-.807 44.852-.048m54.178 31.227c-7.96 2.935-14.261 10.158-16.073 18.426-.241 1.1-.512 6.194-.601 11.319l-.163 9.32 1.38 1.38 1.381 1.381h39.66c42.895 0 41.072.089 42.596-2.087.909-1.298.891-15.499-.025-20.073-1.92-9.576-8.703-17.553-16.751-19.698-2.861-.762-49.328-.733-51.404.032m51.541.804c6.574 1.75 13.683 9.571 15.29 16.822.243 1.1.607 2.553.808 3.228.201.676.365 5.01.365 9.631v8.402l-1.032.969-1.032.97-39.84.106-39.84.105-1.148-1.099-1.148-1.1.165-9.206c.174-9.742.38-11.324 1.996-15.298 2.3-5.658 7.416-10.804 13.079-13.159l2.2-.915 24-.012c19.509-.01 24.4.094 26.137.556"/><path fill="#fb7c24" d="M80.8 107.182c-7.136.33-8.138.649-11.124 3.545-4.241 4.11-5.365 7.418-5.194 15.273l.118 5.4h66.8l-.081-5.469c-.141-9.53-2.448-14.882-7.24-16.799-.594-.237-1.439-.574-1.879-.748-2.831-1.118-5.101-1.274-20-1.369-8.58-.055-18.21.02-21.4.167m197 214.658c-3.673 1.872-6.459 5.353-7.842 9.796-.907 2.913-1.105 12.257-.278 13.084.509.509 64.778.739 66.087.237 1.041-.399.904-10.578-.186-13.812-1.435-4.26-4.375-7.751-7.893-9.372l-2.112-.973-22.888.01-22.888.011-2 1.019"/></g></svg>