<svg width="150" height="171" viewBox="0 0 150 171" fill="none" xmlns="http://www.w3.org/2000/svg">
<path d="M133.338 86.5706V86.571L93.75 123.958L150 170.833V70.8335L133.338 86.5706Z" fill="#13BC8C"/>
<path d="M0 70.8335V170.833L56.25 123.958L0 70.8335Z" fill="#40E4B6"/>
<path d="M56.25 123.958L0 170.833H75V141.667L56.25 123.958Z" fill="#29CFA0"/>
<path d="M75 141.667V170.833H150L93.75 123.958L75 141.667Z" fill="#28C498"/>
<path d="M16.6637 55.0952L0 70.8331H16.6625L16.6637 55.0952Z" fill="#0AD69C"/>
<path d="M150 70.833L133.335 55.0942L133.336 70.833H150Z" fill="#0AD69C"/>
<path d="M74.9998 0L48.4219 25.1012L101.511 25.0383L74.9998 0Z" fill="#0AD69C"/>
<path d="M133.338 86.5706L150 70.8335H133.337L133.338 86.5706Z" fill="#0C926C"/>
<path d="M75 141.667L16.6608 86.5689L16.6625 70.8335H0L56.25 123.958L75 141.667Z" fill="#0C926C"/>
<path d="M16.6606 86.5687L74.9998 141.667L93.7498 123.958L133.337 86.5708L133.336 70.8333L133.335 55.0946L133.333 25L101.511 25.0383L48.4219 25.1013L16.6665 25.1392L16.6636 55.0954L16.6623 70.8333L16.6606 86.5687ZM37.4998 75H112.5V87.5H37.4998V75ZM37.4998 62.5V50H112.5V62.5H37.4998Z" fill="#F2F0E3"/>
</svg>
