<svg width="22" height="22" viewBox="0 0 22 22" fill="none" xmlns="http://www.w3.org/2000/svg">
<path d="M11 1.83325C7.45251 1.83325 4.58334 4.70242 4.58334 8.24992C4.58334 13.0624 11 20.1666 11 20.1666C11 20.1666 17.4167 13.0624 17.4167 8.24992C17.4167 4.70242 14.5475 1.83325 11 1.83325ZM6.41668 8.24992C6.41668 5.71992 8.47001 3.66659 11 3.66659C13.53 3.66659 15.5833 5.71992 15.5833 8.24992C15.5833 10.8899 12.9433 14.8408 11 17.3066C9.09334 14.8591 6.41668 10.8624 6.41668 8.24992Z" fill="#858585"/>
<path d="M11 10.5416C12.2657 10.5416 13.2917 9.51557 13.2917 8.24992C13.2917 6.98427 12.2657 5.95825 11 5.95825C9.73436 5.95825 8.70834 6.98427 8.70834 8.24992C8.70834 9.51557 9.73436 10.5416 11 10.5416Z" fill="#858585"/>
</svg>
