<svg width="26" height="24" viewBox="0 0 26 24" fill="none" xmlns="http://www.w3.org/2000/svg">
<path fill-rule="evenodd" clip-rule="evenodd" d="M12 11.25C12 12.9069 10.6569 14.25 9 14.25C7.34315 14.25 6 12.9069 6 11.25C6 9.59315 7.34315 8.25 9 8.25C10.6569 8.25 12 9.59315 12 11.25ZM10.5 11.25C10.5 12.0784 9.82843 12.75 9 12.75C8.17157 12.75 7.5 12.0784 7.5 11.25C7.5 10.4216 8.17157 9.75 9 9.75C9.82843 9.75 10.5 10.4216 10.5 11.25Z" fill="white"/>
<path d="M12 17.25C12 16.8358 11.6642 16.5 11.25 16.5H6.75C6.33579 16.5 6 16.8358 6 17.25V21.75H4.5V17.25C4.5 16.0074 5.50736 15 6.75 15H11.25C12.4926 15 13.5 16.0074 13.5 17.25V21.75H12V17.25Z" fill="white"/>
<path fill-rule="evenodd" clip-rule="evenodd" d="M20 11.25C20 12.9069 18.6569 14.25 17 14.25C15.3431 14.25 14 12.9069 14 11.25C14 9.59315 15.3431 8.25 17 8.25C18.6569 8.25 20 9.59315 20 11.25ZM18.5 11.25C18.5 12.0784 17.8284 12.75 17 12.75C16.1716 12.75 15.5 12.0784 15.5 11.25C15.5 10.4216 16.1716 9.75 17 9.75C17.8284 9.75 18.5 10.4216 18.5 11.25Z" fill="white"/>
<path d="M20 17.25C20 16.8358 19.6642 16.5 19.25 16.5H14.75C14.3358 16.5 14 16.8358 14 17.25V21.75H12.5V17.25C12.5 16.0074 13.5074 15 14.75 15H19.25C20.4926 15 21.5 16.0074 21.5 17.25V21.75H20V17.25Z" fill="white"/>
<path fill-rule="evenodd" clip-rule="evenodd" d="M16 5.25C16 6.90685 14.6569 8.25 13 8.25C11.3431 8.25 10 6.90685 10 5.25C10 3.59315 11.3431 2.25 13 2.25C14.6569 2.25 16 3.59315 16 5.25ZM14.5 5.25C14.5 6.07843 13.8284 6.75 13 6.75C12.1716 6.75 11.5 6.07843 11.5 5.25C11.5 4.42157 12.1716 3.75 13 3.75C13.8284 3.75 14.5 4.42157 14.5 5.25Z" fill="white"/>
</svg>
