<svg width="20" height="20" viewBox="0 0 20 20" fill="none" xmlns="http://www.w3.org/2000/svg">
<path fill-rule="evenodd" clip-rule="evenodd" d="M15 3.5H18C19.1046 3.5 20 4.39543 20 5.5V17.5C20 18.6046 19.1046 19.5 18 19.5H2C0.895431 19.5 0 18.6046 0 17.5V5.5C0 4.39543 0.895431 3.5 2 3.5H5C5 1.84315 6.34315 0.5 8 0.5H12C13.6569 0.5 15 1.84315 15 3.5ZM12 2.5H8C7.44772 2.5 7 2.94772 7 3.5H13C13 2.94772 12.5523 2.5 12 2.5ZM18 5.5H2V7.5H18V5.5ZM2 17.5V9.5H5V11.5H9V9.5H11V11.5H15V9.5H18V17.5H2Z" fill="#858585"/>
</svg>
