<svg width="18" height="14" viewBox="0 0 18 14" fill="none" xmlns="http://www.w3.org/2000/svg">
<path d="M12.75 9.25H14.25V10.75H12.75V9.25Z" fill="#858585"/>
<path d="M14.25 6.25H12.75V7.75H14.25V6.25Z" fill="#858585"/>
<path fill-rule="evenodd" clip-rule="evenodd" d="M9.75 3.25H17.25V13.75H0.75V0.25H9.75V3.25ZM6 1.75H8.25V3.25H6V1.75ZM8.25 12.25V10.75H6V12.25H8.25ZM8.25 9.25V7.75H6V9.25H8.25ZM8.25 6.25V4.75H6V6.25H8.25ZM15.75 12.25V4.75H9.75V6.25H11.25V7.75H9.75V9.25H11.25V10.75H9.75V12.25H15.75ZM2.25 12.25V10.75H4.5V12.25H2.25ZM2.25 9.25H4.5V7.75H2.25V9.25ZM4.5 6.25V4.75H2.25V6.25H4.5ZM2.25 3.25H4.5V1.75H2.25V3.25Z" fill="#858585"/>
</svg>
