<svg width="203" height="40" viewBox="0 0 203 40" fill="none" xmlns="http://www.w3.org/2000/svg">
<path d="M56.768 14.96H61.232V29H64.592V14.96H69.056V12.248H56.768V14.96Z" fill="#ffffff"/>
<path d="M70.6436 22.304C70.6436 26.456 73.3316 29.216 76.6916 29.216C78.8036 29.216 80.3156 28.208 81.1076 27.056V29H84.4916V15.704H81.1076V17.6C80.3156 16.496 78.8516 15.488 76.7156 15.488C73.3316 15.488 70.6436 18.152 70.6436 22.304ZM81.1076 22.352C81.1076 24.872 79.4276 26.264 77.5796 26.264C75.7796 26.264 74.0756 24.824 74.0756 22.304C74.0756 19.784 75.7796 18.44 77.5796 18.44C79.4276 18.44 81.1076 19.832 81.1076 22.352Z" fill="#ffffff"/>
<path d="M98.0932 25.208C97.9972 20.336 90.6292 21.848 90.6292 19.424C90.6292 18.656 91.2772 18.152 92.5252 18.152C93.8452 18.152 94.6612 18.848 94.7572 19.88H97.9732C97.7812 17.24 95.8372 15.488 92.6212 15.488C89.3332 15.488 87.3652 17.264 87.3652 19.472C87.3652 24.344 94.8772 22.832 94.8772 25.208C94.8772 25.976 94.1572 26.576 92.8372 26.576C91.4932 26.576 90.5572 25.808 90.4372 24.8H87.0532C87.1972 27.272 89.5252 29.216 92.8612 29.216C96.1012 29.216 98.0932 27.488 98.0932 25.208Z" fill="#ffffff"/>
<path d="M100.851 29H104.211V23.336L108.723 29H113.091L107.187 22.376L113.043 15.704H108.675L104.211 21.344V11.24H100.851V29Z" fill="#ffffff"/>
<path d="M120.531 24.992L117.099 15.704H113.331L118.659 28.664L115.779 35.288H119.355L127.587 15.704H124.011L120.531 24.992Z" fill="#ffffff"/>
<path d="M139.934 29H143.294V12.248H139.934V19.136H132.758V12.248H129.398V29H132.758V21.872H139.934V29Z" fill="#ffffff"/>
<path d="M159.153 15.704H155.769V23.024C155.769 25.16 154.617 26.312 152.793 26.312C151.017 26.312 149.841 25.16 149.841 23.024V15.704H146.481V23.504C146.481 27.152 148.713 29.168 151.809 29.168C153.465 29.168 154.929 28.448 155.769 27.32V29H159.153V15.704Z" fill="#ffffff"/>
<path d="M172.789 25.208C172.693 20.336 165.325 21.848 165.325 19.424C165.325 18.656 165.973 18.152 167.221 18.152C168.541 18.152 169.357 18.848 169.453 19.88H172.669C172.477 17.24 170.533 15.488 167.317 15.488C164.029 15.488 162.061 17.264 162.061 19.472C162.061 24.344 169.573 22.832 169.573 25.208C169.573 25.976 168.853 26.576 167.533 26.576C166.189 26.576 165.253 25.808 165.133 24.8H161.749C161.893 27.272 164.221 29.216 167.557 29.216C170.797 29.216 172.789 27.488 172.789 25.208Z" fill="#ffffff"/>
<path d="M175.547 29H178.907V23.336L183.419 29H187.787L181.883 22.376L187.739 15.704H183.371L178.907 21.344V11.24H175.547V29Z" fill="#ffffff"/>
<path d="M195.226 24.992L191.794 15.704H188.026L193.354 28.664L190.474 35.288H194.05L202.282 15.704H198.706L195.226 24.992Z" fill="#ffffff"/>
<circle cx="20" cy="20" r="20" fill="#FECE2F"/>
<path d="M23 13C23 14.6569 21.6569 16 20 16C18.3431 16 17 14.6569 17 13C17 11.3431 18.3431 10 20 10C21.6569 10 23 11.3431 23 13Z" fill="#19191D"/>
<path d="M22 20C22 21.1046 21.1046 22 20 22C18.8954 22 18 21.1046 18 20C18 18.8954 18.8954 18 20 18C21.1046 18 22 18.8954 22 20Z" fill="#19191D"/>
<path d="M20 30C21.6569 30 23 28.6569 23 27C23 25.3431 21.6569 24 20 24C18.3431 24 17 25.3431 17 27C17 28.6569 18.3431 30 20 30Z" fill="#19191D"/>
<path d="M30 20C30 21.6569 28.6569 23 27 23C25.3431 23 24 21.6569 24 20C24 18.3431 25.3431 17 27 17C28.6569 17 30 18.3431 30 20Z" fill="#19191D"/>
<path d="M13 23C14.6569 23 16 21.6569 16 20C16 18.3431 14.6569 17 13 17C11.3431 17 10 18.3431 10 20C10 21.6569 11.3431 23 13 23Z" fill="#19191D"/>
</svg>
