<svg width="122" height="122" viewBox="0 0 122 122" fill="none" xmlns="http://www.w3.org/2000/svg">
<path d="M79.3 18.3C79.3 28.4068 71.1068 36.6 61 36.6C50.8932 36.6 42.7 28.4068 42.7 18.3C42.7 8.19319 50.8932 0 61 0C71.1068 0 79.3 8.19319 79.3 18.3Z" fill="#FECE2F"/>
<path d="M73.2 61C73.2 67.7379 67.7379 73.2 61 73.2C54.2621 73.2 48.8 67.7379 48.8 61C48.8 54.2621 54.2621 48.8 61 48.8C67.7379 48.8 73.2 54.2621 73.2 61Z" fill="#FECE2F"/>
<path d="M61 122C71.1068 122 79.3 113.807 79.3 103.7C79.3 93.5932 71.1068 85.4 61 85.4C50.8932 85.4 42.7 93.5932 42.7 103.7C42.7 113.807 50.8932 122 61 122Z" fill="#FECE2F"/>
<path d="M122 61C122 71.1068 113.807 79.3 103.7 79.3C93.5932 79.3 85.4 71.1068 85.4 61C85.4 50.8932 93.5932 42.7 103.7 42.7C113.807 42.7 122 50.8932 122 61Z" fill="#FECE2F"/>
<path d="M18.3 79.3C28.4068 79.3 36.6 71.1068 36.6 61C36.6 50.8932 28.4068 42.7 18.3 42.7C8.19319 42.7 0 50.8932 0 61C0 71.1068 8.19319 79.3 18.3 79.3Z" fill="#FECE2F"/>
</svg>
