<svg width="618" height="618" viewBox="0 0 618 618" fill="none" xmlns="http://www.w3.org/2000/svg">
<path d="M305.659 539.026L320.754 513.923C321.103 513.281 321.188 512.529 320.992 511.826C320.796 511.123 320.334 510.524 319.703 510.156C319.073 509.787 318.324 509.678 317.615 509.853C316.906 510.027 316.293 510.47 315.905 511.088L300.809 536.191C300.461 536.833 300.376 537.585 300.572 538.288C300.768 538.991 301.23 539.59 301.86 539.958C302.491 540.327 303.24 540.435 303.948 540.261C304.657 540.087 305.271 539.644 305.659 539.026Z" fill="#2A8EEA"/>
<path d="M451.47 303.821L433.737 347.244C432.371 350.587 437.801 352.044 439.151 348.737L456.883 305.313C458.249 301.969 452.819 300.515 451.47 303.821Z" fill="#2A8EEA"/>
<path d="M290.511 511.933C298.209 496.424 306.551 481.276 315.538 466.489C315.879 465.848 315.959 465.101 315.761 464.403C315.563 463.704 315.103 463.11 314.476 462.744C313.85 462.377 313.106 462.268 312.4 462.437C311.695 462.607 311.082 463.043 310.691 463.655C301.697 478.452 293.354 493.6 285.662 509.098C284.06 512.326 288.903 515.173 290.511 511.933Z" fill="#2A8EEA"/>
<path d="M98.845 528.596L122.222 488.517C122.57 487.875 122.656 487.124 122.459 486.42C122.263 485.717 121.801 485.118 121.171 484.75C120.541 484.381 119.792 484.273 119.083 484.447C118.374 484.621 117.761 485.064 117.373 485.682L93.9958 525.766C93.6473 526.407 93.5621 527.159 93.7583 527.862C93.9544 528.565 94.4166 529.165 95.0468 529.533C95.677 529.901 96.4258 530.01 97.1348 529.836C97.8437 529.662 98.4571 529.219 98.845 528.6V528.596Z" fill="#2A8EEA"/>
<path d="M137.752 366.886L163.626 315.987C165.259 312.774 160.416 309.929 158.777 313.155L132.903 364.051C131.269 367.265 136.112 370.112 137.752 366.886Z" fill="#2A8EEA"/>
<path d="M145.494 425.623L170.832 373.773C172.412 370.537 167.571 367.688 165.982 370.938L140.644 422.791C139.064 426.025 143.905 428.874 145.494 425.623Z" fill="#2A8EEA"/>
<path d="M451.805 349.353L434.073 392.778C432.707 396.121 438.137 397.576 439.489 394.269L457.221 350.847C458.587 347.503 453.155 346.047 451.805 349.353Z" fill="#2A8EEA"/>
<path d="M290.907 374.096C290.635 373.73 290.265 373.449 289.839 373.286C289.413 373.123 288.95 373.086 288.503 373.177C275.649 374.902 268.187 382.177 262.318 393.347C257.384 402.187 252.924 411.284 248.957 420.599C245.644 426.751 242.769 433.131 240.355 439.689C240.111 440.284 240.084 440.946 240.278 441.559C240.391 442.266 240.753 442.91 241.298 443.374C241.844 443.838 242.537 444.091 243.253 444.089C254.667 444.233 262.59 433.276 268.904 425.017C270.492 422.941 271.994 420.815 273.407 418.65C277.223 413.722 280.611 408.478 283.536 402.975C288.092 395.156 291.481 386.714 293.597 377.915C293.704 377.485 293.717 377.037 293.636 376.602C293.554 376.166 293.38 375.753 293.125 375.391C292.869 375.029 292.539 374.726 292.157 374.502C291.774 374.279 291.348 374.14 290.907 374.096Z" fill="#2A8EEA"/>
<path d="M198.605 487.322C198.584 487.355 198.568 487.388 198.549 487.421C198.077 487.571 197.649 487.833 197.301 488.185C175.187 509.937 159.23 538.449 166.285 570.276C166.416 570.732 166.649 571.153 166.966 571.506C167.283 571.859 167.676 572.135 168.116 572.314C168.555 572.492 169.03 572.568 169.503 572.537C169.976 572.505 170.436 572.366 170.848 572.13C196.131 556.231 200.257 516.391 204.28 489.714C204.778 486.422 200.545 484.086 198.605 487.322Z" fill="#2A8EEA"/>
<path d="M96.9951 177.284C99.536 174.923 102.632 173.242 105.995 172.397C108.166 171.87 110.411 171.71 112.635 171.926C112.635 171.361 112.639 170.796 112.649 170.23C108.63 170.268 104.669 169.267 101.15 167.326C98.1231 165.615 95.6278 163.102 93.9401 160.062C92.1942 157.174 91.0793 153.948 90.6688 150.598C90.4773 149.661 90.3042 148.713 90.1435 147.762C89.7315 147.793 89.3195 147.826 88.8952 147.842C87.8096 159.761 78.2326 170.83 66.4947 169.695L66.3794 169.717C66.1281 169.771 65.8706 169.8 65.6172 169.841C65.644 170.304 65.6749 170.768 65.7037 171.233C68.8959 171.453 72.0113 172.312 74.8649 173.76C77.7186 175.207 80.2523 177.213 82.3155 179.659C85.786 183.729 87.8228 188.826 88.1124 194.167C88.4461 194.194 88.7778 194.198 89.1094 194.204C89.2067 191.003 89.9538 187.855 91.3054 184.951C92.5479 181.969 94.5013 179.337 96.9951 177.284Z" fill="#6C6CE5"/>
<path d="M587.615 374.895C590.157 372.537 593.252 370.857 596.615 370.011C598.786 369.483 601.03 369.323 603.255 369.537C603.255 368.975 603.255 368.408 603.269 367.844C599.25 367.88 595.289 366.879 591.77 364.937C588.743 363.227 586.248 360.714 584.56 357.676C582.815 354.787 581.7 351.561 581.291 348.21C581.097 347.275 580.926 346.327 580.763 345.374C580.351 345.406 579.939 345.439 579.517 345.454C578.429 357.373 568.852 368.441 557.115 367.308C557.075 367.308 557.038 367.325 557.001 367.329C556.748 367.383 556.49 367.411 556.237 367.453L556.324 368.845C559.516 369.065 562.631 369.925 565.485 371.373C568.339 372.82 570.872 374.827 572.935 377.273C576.406 381.343 578.443 386.44 578.734 391.781C579.066 391.806 579.398 391.81 579.729 391.818C579.826 388.617 580.573 385.468 581.925 382.565C583.167 379.582 585.12 376.949 587.615 374.895Z" fill="#FFDB43"/>
<path d="M465.696 448.505C470.992 448.505 475.285 444.212 475.285 438.916C475.285 433.62 470.992 429.327 465.696 429.327C460.4 429.327 456.107 433.62 456.107 438.916C456.107 444.212 460.4 448.505 465.696 448.505Z" fill="#6C6CE5"/>
<path d="M94.142 295.235C95.76 293.733 97.7312 292.663 99.8729 292.125C101.255 291.789 102.684 291.687 104.1 291.824C104.1 291.466 104.1 291.105 104.1 290.745C101.541 290.767 99.019 290.128 96.7788 288.891C94.8574 287.804 93.2723 286.209 92.1974 284.28C91.0869 282.441 90.3779 280.388 90.1167 278.255C89.9931 277.66 89.884 277.056 89.781 276.448C89.5173 276.469 89.2516 276.489 88.9879 276.5C88.2957 284.087 82.1899 291.126 74.7265 290.413L74.6523 290.425C74.4916 290.46 74.3289 290.479 74.1662 290.504L74.2218 291.391C76.2535 291.531 78.2366 292.076 80.0533 292.996C81.8701 293.916 83.4835 295.192 84.7978 296.748C87.0062 299.339 88.3031 302.584 88.4894 305.985C88.6954 306.001 88.9014 306.003 89.1218 306.007C89.1849 303.969 89.6607 301.965 90.5205 300.116C91.3115 298.218 92.5548 296.542 94.142 295.235Z" fill="#FFDB43"/>
<path d="M392.109 454.144C394.573 454.144 396.571 452.146 396.571 449.682C396.571 447.217 394.573 445.22 392.109 445.22C389.644 445.22 387.647 447.217 387.647 449.682C387.647 452.146 389.644 454.144 392.109 454.144Z" fill="#6C6CE5"/>
<path d="M441.184 554.463C443.648 554.463 445.646 552.466 445.646 550.001C445.646 547.537 443.648 545.54 441.184 545.54C438.72 545.54 436.722 547.537 436.722 550.001C436.722 552.466 438.72 554.463 441.184 554.463Z" fill="#6C6CE5"/>
<path d="M164.615 225.102C167.079 225.102 169.077 223.104 169.077 220.64C169.077 218.176 167.079 216.178 164.615 216.178C162.15 216.178 160.153 218.176 160.153 220.64C160.153 223.104 162.15 225.102 164.615 225.102Z" fill="#6C6CE5"/>
<path d="M18.643 258.604C23.2507 258.604 26.986 254.869 26.986 250.261C26.986 245.653 23.2507 241.918 18.643 241.918C14.0353 241.918 10.3 245.653 10.3 250.261C10.3 254.869 14.0353 258.604 18.643 258.604Z" fill="#6C6CE5"/>
<path d="M164.596 122.556C167.06 122.556 169.058 120.558 169.058 118.094C169.058 115.63 167.06 113.632 164.596 113.632C162.132 113.632 160.134 115.63 160.134 118.094C160.134 120.558 162.132 122.556 164.596 122.556Z" fill="#6C6CE5"/>
<path d="M27.946 458.608C30.4102 458.608 32.4079 456.61 32.4079 454.146C32.4079 451.681 30.4102 449.684 27.946 449.684C25.4817 449.684 23.484 451.681 23.484 454.146C23.484 456.61 25.4817 458.608 27.946 458.608Z" fill="#6C6CE5"/>
<path d="M93.5981 364.406C96.0624 364.406 98.0601 362.408 98.0601 359.944C98.0601 357.48 96.0624 355.482 93.5981 355.482C91.1339 355.482 89.1362 357.48 89.1362 359.944C89.1362 362.408 91.1339 364.406 93.5981 364.406Z" fill="#6C6CE5"/>
<path d="M543.883 262.625C546.347 262.625 548.345 260.627 548.345 258.163C548.345 255.699 546.347 253.701 543.883 253.701C541.419 253.701 539.421 255.699 539.421 258.163C539.421 260.627 541.419 262.625 543.883 262.625Z" fill="#6C6CE5"/>
<path d="M532.351 148.716C533.461 147.685 534.813 146.951 536.282 146.582C537.23 146.352 538.211 146.282 539.182 146.376V145.636C537.427 145.651 535.698 145.214 534.16 144.367C532.839 143.619 531.75 142.521 531.012 141.195C530.251 139.932 529.764 138.523 529.585 137.06C529.5 136.648 529.426 136.236 529.354 135.824C529.173 135.839 528.992 135.853 528.81 135.859C528.334 141.067 524.153 145.902 519.025 145.405H518.976C518.865 145.428 518.753 145.44 518.642 145.459L518.679 146.077C520.074 146.174 521.434 146.549 522.681 147.182C523.928 147.814 525.035 148.69 525.937 149.758C527.452 151.537 528.341 153.764 528.468 156.097C528.615 156.107 528.759 156.109 528.903 156.111C528.946 154.713 529.273 153.338 529.863 152.069C530.406 150.765 531.261 149.614 532.351 148.716Z" fill="#FFDB43"/>
<path d="M550.166 514.279C552.631 514.279 554.628 512.281 554.628 509.817C554.628 507.353 552.631 505.355 550.166 505.355C547.702 505.355 545.704 507.353 545.704 509.817C545.704 512.281 547.702 514.279 550.166 514.279Z" fill="#6C6CE5"/>
<path d="M508.663 77.5304C511.128 77.5304 513.125 75.5327 513.125 73.0684C513.125 70.6041 511.128 68.6064 508.663 68.6064C506.199 68.6064 504.201 70.6041 504.201 73.0684C504.201 75.5327 506.199 77.5304 508.663 77.5304Z" fill="#6C6CE5"/>
<path d="M44.8441 83.2218C47.3084 83.2218 49.3061 81.2241 49.3061 78.7598C49.3061 76.2955 47.3084 74.2979 44.8441 74.2979C42.3799 74.2979 40.3822 76.2955 40.3822 78.7598C40.3822 81.2241 42.3799 83.2218 44.8441 83.2218Z" fill="#6C6CE5"/>
<path d="M216.761 66.7704C217.871 65.7396 219.223 65.0056 220.692 64.6362C221.641 64.4065 222.621 64.3369 223.592 64.4302V63.6907C221.837 63.7058 220.108 63.2688 218.57 62.4217C217.249 61.6734 216.16 60.5758 215.422 59.2493C214.66 57.9876 214.173 56.5784 213.995 55.1149C213.911 54.7029 213.834 54.2909 213.764 53.8789C213.583 53.8933 213.402 53.9077 213.22 53.9139C212.744 59.1216 208.561 63.9564 203.433 63.46L203.384 63.4703C203.275 63.4929 203.161 63.5053 203.05 63.5238C203.062 63.7298 203.077 63.9358 203.089 64.1315C204.483 64.2283 205.844 64.604 207.09 65.2363C208.336 65.8687 209.443 66.7448 210.345 67.8127C211.861 69.5908 212.751 71.8179 212.878 74.1514C213.023 74.1617 213.169 74.1637 213.313 74.1658C213.355 72.7676 213.681 71.3926 214.271 70.1241C214.815 68.8195 215.67 67.6681 216.761 66.7704Z" fill="#FFDB43"/>
<path d="M184.628 85.7185C181.723 89.3338 179.082 92.9903 176.453 96.8425C174.033 100.396 170.308 104.489 169.532 108.757C169.454 109.194 169.917 109.695 170.356 109.392C173.631 107.142 175.506 102.922 177.566 99.6029C180.322 95.1903 182.877 90.8005 185.229 86.182C185.417 85.8153 184.914 85.358 184.623 85.7143L184.628 85.7185Z" fill="#6C6CE5"/>
<path d="M440.337 214.749C449.555 205.651 460.587 198.598 472.714 194.052C467.528 182.661 461.752 171.547 455.41 160.756C447.523 150.528 439.075 140.284 428.177 133.393C426 132.017 423.979 135.02 425.542 136.807L428.632 140.337C426.453 138.714 424.249 137.165 422.016 135.744C421.701 135.544 421.343 135.424 420.971 135.393C418.586 134.157 416.645 137.412 418.248 139.367L420.706 142.356C418.759 141.049 416.71 139.901 414.579 138.922C413.913 138.555 413.129 138.462 412.396 138.664C411.662 138.866 411.036 139.347 410.652 140.004C410.268 140.661 410.156 141.442 410.34 142.18C410.523 142.919 410.988 143.556 411.635 143.957C412.06 144.227 412.447 144.534 412.859 144.816C412.939 144.99 413.043 145.151 413.168 145.296C418.32 150.619 421.787 157.343 423.136 164.627C422.12 161.831 420.774 159.168 419.125 156.692C418.838 156.261 418.439 155.916 417.972 155.692C417.504 155.469 416.985 155.375 416.47 155.422C415.954 155.468 415.46 155.653 415.04 155.956C414.62 156.259 414.289 156.67 414.083 157.145C413.841 157.341 413.651 157.595 413.532 157.882C413.413 158.17 413.367 158.483 413.399 158.793C414.006 166.038 413.38 175.644 418.944 180.928C423.808 185.546 428.474 188.613 432.064 194.612C435.655 200.611 440.222 214.547 440.337 214.749Z" fill="#FFB093"/>
<path d="M414.507 64.7064C414.558 64.2366 414.49 63.7615 414.311 63.3242C414.249 62.8548 414.027 62.4211 413.683 62.0962C413.338 61.7713 412.892 61.5749 412.42 61.5402C411.791 61.2935 411.107 61.2223 410.441 61.3342C410.794 60.8649 411.033 60.3198 411.14 59.7421C411.246 59.1643 411.217 58.5697 411.054 58.0053C410.891 57.4408 410.599 56.9219 410.202 56.4897C409.804 56.0574 409.311 55.7237 408.762 55.5147C402.866 53.362 396.943 51.2876 390.98 49.3347C386.47 47.8556 380.929 45.1941 376.104 45.4763C375.355 45.4866 374.628 45.7374 374.031 46.1916C373.435 46.6459 372.999 47.2798 372.79 47.9998C372.79 48.0575 372.763 48.1111 372.751 48.1667C372.379 48.3859 372.075 48.7021 371.869 49.0813C360.7 69.3991 348.904 89.3131 337.158 109.299C341.597 110.385 376.129 124.722 378.723 125.674C385.034 116.629 390.417 106.971 394.791 96.8466C399.097 92.3547 404.033 88.5118 409.444 85.4383C409.897 85.1975 410.293 84.8632 410.607 84.4577C411.374 84.2632 412.049 83.8065 412.514 83.1669C412.979 82.5273 413.206 81.7451 413.156 80.9557C413.004 76.0488 413.463 71.1421 414.521 66.3483C414.645 65.8074 414.64 65.2451 414.507 64.7064Z" fill="#FFB093"/>
<path d="M380.023 60.4075C380.937 58.3681 381.949 56.3782 382.958 54.3861C384.119 52.6265 385.05 50.7255 385.729 48.7294C385.81 48.3957 385.782 48.0447 385.647 47.7287C385.513 47.4126 385.28 47.1484 384.983 46.9756C384.686 46.8028 384.342 46.7305 384.001 46.7696C383.659 46.8087 383.34 46.9571 383.09 47.1926C381.53 48.8215 380.312 50.7463 379.508 52.8535C378.526 54.8839 377.669 56.9725 376.943 59.1077C376.31 60.8854 379.238 62.1544 380.033 60.4075H380.023Z" fill="#F78663"/>
<path d="M393.998 65.77C396.288 61.889 397.959 57.7649 400.481 53.9807C401.632 52.2523 398.808 50.594 397.693 52.3512C395.015 56.1356 392.938 60.3119 391.538 64.7318C391.464 65.0434 391.503 65.3711 391.649 65.6565C391.794 65.9419 392.036 66.1665 392.331 66.2902C392.626 66.4138 392.956 66.4286 393.261 66.3319C393.567 66.2351 393.828 66.0331 393.998 65.7618V65.77Z" fill="#F78663"/>
<path d="M399.846 79.3097C404.641 73.036 408.713 66.2409 411.984 59.0538C412.985 56.5818 409.13 55.1913 407.814 57.2966C403.729 63.833 401.057 71.181 397.967 78.2118C397.841 78.4597 397.813 78.7467 397.892 79.0139C397.97 79.2811 398.147 79.5083 398.388 79.6488C398.628 79.7892 398.913 79.8324 399.184 79.7694C399.455 79.7063 399.692 79.5419 399.846 79.3097Z" fill="#F78663"/>
<path d="M422.712 145.712C424.772 147.675 426.863 149.599 428.857 151.62C430.685 153.801 432.634 155.878 434.697 157.839C434.905 158.031 435.174 158.143 435.457 158.155C435.739 158.168 436.017 158.08 436.241 157.907C436.465 157.735 436.621 157.489 436.681 157.212C436.741 156.936 436.702 156.647 436.57 156.397C434.924 153.935 432.941 151.715 430.678 149.805C428.582 147.741 426.337 145.833 423.962 144.097C423.005 143.404 421.878 144.921 422.712 145.716V145.712Z" fill="#F78663"/>
<path d="M430.128 142.228C432.054 144.352 433.933 146.526 435.678 148.8C436.882 150.9 438.419 152.792 440.228 154.401C440.488 154.545 440.785 154.61 441.081 154.587C441.377 154.565 441.661 154.457 441.896 154.275C442.132 154.094 442.309 153.848 442.406 153.567C442.504 153.286 442.517 152.983 442.445 152.695C441.225 150.431 439.531 148.456 437.478 146.907C435.435 144.933 433.332 143.026 431.17 141.186C431.031 141.055 430.846 140.984 430.654 140.987C430.463 140.991 430.281 141.068 430.145 141.203C430.01 141.339 429.933 141.521 429.929 141.712C429.926 141.904 429.997 142.089 430.128 142.228Z" fill="#F78663"/>
<path d="M402.231 348.538C395.588 330.426 377.12 331.304 360.889 331.625L314.218 332.548L301.296 331.446C301.388 331.219 265.404 320.322 248.413 312.376C245.904 311.487 243.408 310.557 240.913 309.61C229.037 337.848 218.047 366.445 208.173 395.448C202.694 411.537 197.535 427.73 192.699 444.029C188.638 457.724 182.79 472.354 181.47 486.622C179.377 509.259 204.012 510.866 215.235 495.529C218.338 491.163 220.827 486.392 222.635 481.35C226.08 475.398 229.175 469.25 231.905 462.938C246.05 437 259.886 410.9 273.414 384.639C279.072 383.657 284.721 382.62 290.369 381.595C281.328 390.922 276.036 406.218 288.833 413.904C290.993 415.17 293.386 415.987 295.87 416.308C296.477 416.621 297.167 416.736 297.843 416.637C298.049 416.608 298.255 416.571 298.473 416.542L298.731 416.559C299.237 416.825 299.814 416.924 300.379 416.841L301.221 416.736C305.289 416.829 309.356 416.56 313.375 415.933C321.146 415.19 328.862 413.958 336.478 412.245C341.61 411.199 346.803 410.136 351.965 408.931C366.074 406.842 380.791 403.575 391.507 393.804C403.4 382.987 407.758 363.611 402.231 348.538Z" fill="#FFDB43"/>
<path d="M357.478 370.516C356.094 369.206 354.627 367.997 353.129 366.824L355.385 364.146C356.578 363.085 357.515 361.769 358.127 360.294C358.189 360.04 358.175 359.773 358.088 359.526C358.001 359.28 357.845 359.063 357.637 358.904C357.43 358.745 357.181 358.649 356.92 358.628C356.659 358.608 356.398 358.663 356.168 358.788C354.81 359.468 353.96 361.164 353.078 362.365C352.237 363.503 351.398 364.643 350.561 365.784C350.309 365.877 350.078 366.017 349.879 366.196C332.054 369.601 314.418 373.933 297.044 379.174C296.788 379.259 296.574 379.44 296.446 379.678C296.319 379.916 296.288 380.194 296.36 380.454C296.431 380.715 296.6 380.938 296.831 381.078C297.062 381.217 297.338 381.263 297.602 381.205C315.112 377.843 332.441 373.433 349.792 369.346C351.422 370.658 352.981 372.055 354.462 373.532C355.851 374.926 357.109 377.11 359.064 377.652C360.107 377.94 361.575 377.087 361.419 375.858C361.118 373.585 359.081 372.036 357.478 370.516Z" fill="#FFA42C"/>
<path d="M289.092 328.982C286.919 337.028 284.766 345.075 282.725 353.15C280.851 353.107 279.002 352.704 277.28 351.963C274.897 350.015 276.852 346.212 277.447 343.769C278.815 338.177 280.492 332.666 282.469 327.26C283.273 325.056 279.884 324.242 279.017 326.308C277.038 330.954 275.297 335.698 273.803 340.522C272.74 344.012 270.88 348.418 271.02 352.058C271.205 356.93 278.281 357.509 282.626 357.532C282.815 357.694 283.039 357.812 283.28 357.877C283.521 357.942 283.773 357.952 284.018 357.907C284.264 357.862 284.496 357.763 284.699 357.618C284.901 357.472 285.068 357.283 285.188 357.064C285.467 356.817 285.671 356.497 285.777 356.139C285.883 355.782 285.887 355.402 285.788 355.043C287.992 346.655 290.077 338.244 292.139 329.82C292.226 329.424 292.158 329.01 291.949 328.663C291.74 328.315 291.405 328.062 291.014 327.954C290.623 327.846 290.205 327.893 289.848 328.084C289.49 328.276 289.22 328.597 289.092 328.982Z" fill="#FFA42C"/>
<path d="M232.331 338.629C243.896 335.865 254.756 330.628 261.224 320.238C262.254 318.59 259.634 317.057 258.619 318.713C252.692 328.381 242.293 333.401 231.715 336.396C231.432 336.489 231.195 336.688 231.054 336.951C230.914 337.213 230.879 337.52 230.959 337.808C231.038 338.095 231.226 338.341 231.481 338.494C231.737 338.647 232.042 338.695 232.333 338.629H232.331Z" fill="#FFA42C"/>
<path d="M500.664 247.257C500.893 246.024 500.985 244.768 500.938 243.514C500.922 243.159 500.796 242.818 500.576 242.538C500.7 238.791 498.104 234.916 496.217 231.785C493.99 228.091 491.86 223.02 488.832 219.425C486.978 215.948 485.124 212.481 483.346 209.007C481.772 205.948 477.205 208.643 478.74 211.702C482.021 218.24 485.237 224.818 488.593 231.319C490.476 234.968 492.878 238.509 494.528 242.237C494.175 245.691 493.491 249.102 492.484 252.424C481.737 266.177 458.855 274.616 444.715 280.347C427.394 287.364 409.501 292.617 391.726 298.313C391.512 298.38 391.317 298.496 391.156 298.651C390.994 298.807 390.872 298.998 390.798 299.209C390.723 299.421 390.699 299.647 390.727 299.869C390.755 300.091 390.835 300.304 390.959 300.49C385.138 310.596 379.359 320.725 373.624 330.877C373.438 331.229 373.395 331.64 373.504 332.023C373.614 332.406 373.867 332.732 374.211 332.933C374.555 333.134 374.963 333.195 375.351 333.102C375.738 333.009 376.075 332.77 376.29 332.434C382.551 322.147 388.741 311.817 394.861 301.446C395.045 301.135 395.13 300.776 395.106 300.416C417.48 294.738 439.892 288.274 460.886 278.58C472.36 273.288 494.542 264.337 499.801 250.341C500.356 249.407 500.653 248.344 500.664 247.257Z" fill="#E1E8EE"/>
<path d="M481.725 210.161L481.624 209.671C481.587 209.547 481.51 209.439 481.407 209.362C481.303 209.285 481.177 209.244 481.048 209.244C480.919 209.244 480.793 209.285 480.69 209.362C480.586 209.439 480.51 209.547 480.472 209.671L480.371 210.161C480.348 210.263 480.348 210.369 480.371 210.47C480.394 210.572 480.44 210.667 480.505 210.749C480.57 210.831 480.653 210.896 480.747 210.942C480.841 210.987 480.944 211.01 481.048 211.01C481.152 211.01 481.255 210.987 481.349 210.942C481.443 210.896 481.526 210.831 481.591 210.749C481.656 210.667 481.702 210.572 481.725 210.47C481.748 210.369 481.748 210.263 481.725 210.161Z" fill="#E1E8EE"/>
<path d="M396.571 147.412C396.45 147.238 396.312 147.077 396.159 146.932C388.061 151.319 379.609 155.019 371.439 159.292C363.65 163.377 355.342 166.893 348.192 172.064C345.126 175.901 343.072 180.553 345.759 184.683C346.786 186.275 348.326 187.469 350.125 188.065C351.923 188.662 353.872 188.626 355.647 187.963C354.946 188.96 354.269 189.944 353.636 190.861C349.724 196.654 346.494 202.88 344.01 209.414C343.575 210.524 344.422 214.976 345.524 212.66C348.388 206.62 351.823 200.868 355.783 195.482C357.387 193.298 359.175 191.255 360.964 189.211C368.567 202.824 380.618 209.811 397.998 199.979C398.303 199.808 398.604 199.629 398.907 199.451C395.732 204.455 392.683 209.545 389.857 214.749C385.564 222.67 380.049 231.33 378.612 240.293C378.459 241.245 379.716 242.382 380.488 241.385C386.069 234.175 389.107 224.843 393.338 216.778C397.424 208.995 401.759 201.366 406.343 193.889C408.066 192.297 409.432 190.357 410.351 188.199C411.271 186.041 411.723 183.712 411.679 181.367C411.37 169.917 402.402 156.651 396.571 147.412Z" fill="#FFB093"/>
<path d="M436.514 221.707C443.424 215.354 450.926 209.676 458.916 204.751C466.19 200.291 474.16 197.23 481.465 192.945C481.626 192.842 481.746 192.686 481.803 192.504C481.86 192.321 481.85 192.124 481.776 191.948C481.702 191.772 481.569 191.627 481.399 191.54C481.229 191.453 481.034 191.428 480.847 191.471C463.459 194.958 446.975 207.635 434.384 219.571C432.961 220.914 435.072 223.013 436.514 221.707Z" fill="#E1E8EE"/>
<path d="M482.611 196.915C473.726 197.653 465.181 203.734 457.744 208.336C450.613 212.75 440.593 217.589 436.186 224.898C436.137 224.989 436.114 225.092 436.122 225.196C436.13 225.299 436.168 225.398 436.231 225.48C436.294 225.562 436.38 225.624 436.478 225.658C436.576 225.692 436.681 225.697 436.782 225.673C437.964 225.418 439.123 225.063 440.245 224.612C440.151 224.872 440.11 225.147 440.124 225.423C440.138 225.699 440.206 225.969 440.325 226.219C440.751 227.154 441.149 228.099 441.487 229.065C441.687 229.728 441.935 230.376 442.228 231.004C423.196 233.538 404.39 238.832 385.337 241.922C385.337 241.658 385.283 241.397 385.179 241.154C385.075 240.912 384.923 240.693 384.732 240.511C371.916 227.949 359.914 214.584 348.799 200.495C348.606 200.241 348.356 200.034 348.07 199.892C347.845 199.677 347.572 199.519 347.274 199.43C346.975 199.342 346.66 199.326 346.354 199.384C346.049 199.442 345.761 199.571 345.516 199.763C345.27 199.954 345.074 200.201 344.943 200.483C340.646 209.216 336.564 218.047 332.698 226.975C332.477 227.484 332.452 228.057 332.628 228.583C332.548 228.941 332.563 229.313 332.673 229.662C332.782 230.011 332.982 230.325 333.253 230.572C333.523 230.819 333.854 230.99 334.212 231.068C334.569 231.145 334.941 231.127 335.29 231.014C342.505 228.587 350.009 227.125 357.608 226.668C358.164 235.81 358.721 244.953 359.278 254.096C359.138 254.415 359.076 254.763 359.098 255.11C359.12 255.457 359.225 255.794 359.404 256.093C359.445 256.54 359.616 256.966 359.898 257.316C360.18 257.667 360.559 257.926 360.987 258.061C361.416 258.197 361.875 258.203 362.307 258.078C362.739 257.954 363.124 257.705 363.415 257.362C363.446 257.339 363.477 257.325 363.508 257.298L364.853 256.156C365.176 256.118 365.484 256.002 365.753 255.819C370.697 252.523 375.775 249.461 380.962 246.575C401.883 244.8 425.396 242.888 444.915 234.833C445.144 234.735 445.353 234.595 445.533 234.421C447.387 235.61 449.251 236.762 451.175 237.823C453.01 238.834 455.384 240.791 457.528 240.004C457.83 239.915 458.084 239.712 458.238 239.438C458.392 239.164 458.433 238.841 458.352 238.537C457.472 236.317 454.895 235.89 452.872 234.906C450.547 233.775 448.281 232.532 446.052 231.22C446.077 231.163 446.099 231.103 446.118 231.043C446.565 228.812 444.843 226.099 443.835 224.146C443.66 223.8 443.382 223.518 443.038 223.339C448.958 220.296 454.617 215.305 459.93 212.081C467.505 207.481 476.663 204.586 483.519 199.121C483.69 198.938 483.806 198.708 483.851 198.461C483.895 198.214 483.869 197.959 483.773 197.727C483.677 197.494 483.517 197.294 483.311 197.15C483.105 197.007 482.862 196.925 482.611 196.915Z" fill="#E1E8EE"/>
<path d="M378.803 125.233C372.813 119.311 363.559 116.482 355.781 113.446C349.854 110.855 343.791 108.586 337.62 106.648C334.501 105.509 331.305 104.596 328.055 103.918C327.589 103.696 327.122 103.473 326.654 103.247C326.332 103.093 325.971 103.037 325.617 103.087C325.263 103.136 324.932 103.288 324.663 103.524C324.395 103.76 324.202 104.07 324.108 104.414C324.014 104.759 324.023 105.124 324.135 105.463C324.159 105.79 324.29 106.099 324.509 106.343C324.727 106.586 325.02 106.751 325.342 106.811C325.744 106.903 326.166 107.017 326.568 107.111C329.118 108.395 331.802 109.395 334.571 110.092C340.545 112.673 347.217 114.309 353.039 116.602C361.279 119.844 369.702 124.932 378.556 125.833C378.867 125.866 379.005 125.433 378.803 125.233Z" fill="#E1E8EE"/>
<path d="M324.193 109.18C321.848 108.43 320.915 112.021 323.185 112.834C341.445 119.385 358.943 128.078 377.33 134.205C377.536 134.273 377.612 133.999 377.466 133.883C361.825 122.102 342.7 115.08 324.193 109.18Z" fill="#E1E8EE"/>
<path d="M324.269 116.447C292.415 178.225 259.778 241.248 235.895 306.631C235.806 306.947 235.796 307.281 235.865 307.602C235.933 307.924 236.078 308.224 236.288 308.477C236.498 308.73 236.766 308.929 237.069 309.056C237.372 309.184 237.701 309.236 238.029 309.208C243.004 311.65 248.132 313.769 253.38 315.551C272.744 324.767 294.992 333.456 314.927 333.18C314.987 333.178 315.045 333.156 315.092 333.118C315.14 333.081 315.174 333.029 315.189 332.971C315.205 332.912 315.202 332.85 315.18 332.794C315.159 332.738 315.12 332.689 315.069 332.657C304.437 326.065 291.958 323.014 280.255 318.855C267.277 314.251 254.515 309.062 241.603 304.274C271.854 243.156 298.7 180.456 329.907 119.741C331.823 116.013 326.197 112.707 324.269 116.447Z" fill="#E1E8EE"/>
<path d="M397.125 165.83C398.507 163.5 399.689 161.108 400.833 158.653C402.053 156.614 402.9 154.374 403.334 152.038C403.322 151.723 403.22 151.417 403.04 151.158C402.86 150.899 402.609 150.697 402.318 150.576C402.026 150.455 401.706 150.42 401.395 150.476C401.084 150.532 400.796 150.676 400.565 150.891C399.161 152.791 398.055 154.895 397.285 157.129C396.202 159.438 395.102 161.718 394.103 164.067C393.246 166.075 395.938 167.824 397.121 165.83H397.125Z" fill="#6C6CE5"/>
<path d="M364.591 176.398C369.026 176.363 375.12 176.48 379.135 174.375C380.513 173.654 379.73 171.783 378.401 171.668C376.093 171.702 373.792 171.955 371.531 172.424C369.222 172.671 366.911 172.871 364.591 172.986C364.153 173.008 363.74 173.197 363.438 173.515C363.136 173.832 362.967 174.254 362.967 174.692C362.967 175.13 363.136 175.552 363.438 175.87C363.74 176.187 364.153 176.376 364.591 176.398Z" fill="#6C6CE5"/>
<path d="M400.413 166.436C400.582 166.766 400.825 167.053 401.122 167.276C401.42 167.498 401.764 167.65 402.129 167.719C402.366 167.778 402.613 167.783 402.853 167.733C403.092 167.684 403.317 167.582 403.512 167.433C403.706 167.285 403.865 167.096 403.977 166.878C404.088 166.66 404.149 166.42 404.156 166.176C404.185 165.802 404.128 165.427 403.989 165.078C403.851 164.73 403.634 164.417 403.356 164.165C401.988 162.557 399.207 164.678 400.413 166.431V166.436Z" fill="#6C6CE5"/>
<path d="M376.624 179.877C376.793 180.208 377.036 180.495 377.334 180.717C377.631 180.939 377.975 181.091 378.34 181.161C378.577 181.22 378.824 181.225 379.064 181.175C379.303 181.126 379.529 181.023 379.723 180.875C379.918 180.727 380.076 180.537 380.188 180.32C380.299 180.102 380.36 179.862 380.367 179.618C380.396 179.244 380.339 178.868 380.201 178.52C380.062 178.171 379.846 177.859 379.567 177.607C378.2 175.998 375.421 178.12 376.624 179.873V179.877Z" fill="#6C6CE5"/>
<path d="M378.844 188.193C380.921 190.088 383.529 191.301 386.316 191.667C389.104 192.033 391.937 191.535 394.432 190.241C396.107 189.365 394.638 187.027 392.98 187.756C390.996 188.66 388.803 189.007 386.637 188.76C384.471 188.513 382.412 187.682 380.682 186.356C379.401 185.358 377.567 187.056 378.844 188.193Z" fill="#F78663"/>
<path d="M396.95 172.436C395.894 170.143 394.641 167.945 393.207 165.867C392.888 165.398 392.4 165.069 391.846 164.95C391.291 164.83 390.712 164.928 390.228 165.224C390.102 165.238 389.978 165.261 389.855 165.292C386.402 166.261 380.509 168.135 381.714 171.961C382.816 175.463 385.193 180.098 389.181 181.805C392.659 183.293 397.693 182.252 398.548 178.678C398.7 176.48 398.14 174.291 396.95 172.436Z" fill="#F78663"/>
<path d="M43.3012 429.961C41.4804 433.181 39.4633 436.286 37.2613 439.258C35.1095 441.829 33.231 444.617 31.656 447.576C31.6186 447.725 31.6256 447.882 31.676 448.026C31.7265 448.171 31.8182 448.298 31.9399 448.392C32.0617 448.485 32.2081 448.541 32.3611 448.553C32.5142 448.564 32.6672 448.53 32.8014 448.456C38.5406 444.49 40.9178 436.191 43.5567 430.109C43.6308 429.94 43.3898 429.788 43.3012 429.961Z" fill="#6C6CE5"/>
<path d="M488.169 390.278C481.224 400.664 474.134 411.514 469.762 423.283C468.751 426.004 473.339 427.98 474.5 425.279C479.444 413.768 483.358 402.001 489.009 390.768C489.041 390.713 489.062 390.652 489.071 390.589C489.08 390.526 489.076 390.462 489.06 390.4C489.044 390.339 489.016 390.281 488.977 390.23C488.939 390.18 488.891 390.137 488.836 390.105C488.781 390.072 488.72 390.051 488.657 390.043C488.594 390.034 488.53 390.038 488.468 390.054C488.407 390.07 488.349 390.098 488.298 390.136C488.248 390.175 488.205 390.223 488.173 390.278H488.169Z" fill="#6C6CE5"/>
<path d="M563.251 481.243C559.916 487.048 556.865 493.254 553.048 498.753C551.606 500.835 555.545 502.842 556.396 500.164C558.408 493.839 561.465 487.697 564.018 481.572C564.203 481.125 563.48 480.843 563.247 481.247L563.251 481.243Z" fill="#6C6CE5"/>
<path d="M105.791 272.81C111.835 261.657 119.69 251.566 125.431 240.291C125.63 239.927 125.692 239.505 125.607 239.099C125.521 238.694 125.294 238.332 124.966 238.079C124.638 237.826 124.23 237.698 123.816 237.719C123.402 237.74 123.009 237.907 122.708 238.192C113.401 247.013 107.291 258.998 101.515 270.309C100.073 273.136 104.263 275.628 105.791 272.81Z" fill="#FFDB43"/>
<path d="M594.24 356.981C599.619 344.259 606.478 330.377 607.696 316.459C607.692 316.265 607.631 316.077 607.522 315.917C607.412 315.757 607.259 315.632 607.08 315.558C606.901 315.484 606.704 315.463 606.513 315.499C606.323 315.535 606.147 315.625 606.007 315.759C597.149 326.003 591.964 340.289 586.756 352.606C584.609 357.684 592.073 362.107 594.24 356.981Z" fill="#FFDB43"/>
<path d="M368.194 542.983C369.825 541.479 371.809 540.41 373.962 539.875C375.353 539.537 376.79 539.435 378.214 539.572C378.214 539.213 378.214 538.853 378.214 538.492C375.641 538.515 373.106 537.877 370.851 536.638C368.918 535.552 367.322 533.952 366.239 532.016C365.122 530.178 364.409 528.124 364.146 525.99C364.023 525.395 363.913 524.791 363.808 524.184C363.543 524.204 363.277 524.225 363.011 524.235C362.313 531.824 356.18 538.871 348.665 538.15L348.591 538.165C348.43 538.198 348.266 538.216 348.103 538.243L348.159 539.129C350.199 539.267 352.191 539.812 354.018 540.732C355.844 541.652 357.468 542.928 358.794 544.485C361.012 547.072 362.316 550.319 362.502 553.722C362.708 553.738 362.927 553.741 363.139 553.745C363.202 551.706 363.681 549.702 364.546 547.855C365.345 545.957 366.598 544.285 368.194 542.983Z" fill="#FFDB43"/>
<path d="M374.461 524.097C379.164 514.596 386.281 504.22 387.826 493.671C387.941 492.882 387.037 492.142 386.384 492.828C379.011 500.471 375.215 512.349 370.617 521.847C369.381 524.414 373.19 526.676 374.467 524.097H374.461Z" fill="#FFDB43"/>
<path d="M395.891 145.745C395.836 145.452 395.715 145.176 395.536 144.938C395.358 144.7 395.126 144.507 394.861 144.373C394.634 144.116 394.352 143.913 394.037 143.779C376.428 136.479 357.492 137.325 339.379 142.337C331.149 144.618 320.015 147.469 310.586 152.071C307.937 153.153 305.373 154.433 302.917 155.9C301.611 156.652 300.345 157.472 299.126 158.358C297.036 159.788 294.125 162.359 294.578 164.756C294.426 165.18 294.435 165.644 294.602 166.062C294.769 166.479 295.084 166.821 295.486 167.022C295.957 167.415 296.52 167.681 297.122 167.797C298.476 168.08 299.883 167.952 301.164 167.43C305.723 166.679 310.191 165.454 314.496 163.776L322.036 161.411C315.905 164.21 310.334 168.1 305.595 172.891C305.194 173.31 304.97 173.868 304.97 174.448C304.97 175.028 305.194 175.585 305.595 176.004C309.251 179.726 315.483 176.439 319.475 174.768C323.239 173.141 326.883 171.248 330.377 169.101C329.625 169.845 328.885 170.609 328.168 171.427C327.936 171.668 327.761 171.957 327.656 172.275C327.551 172.593 327.518 172.93 327.561 173.262C327.604 173.594 327.72 173.912 327.903 174.192C328.085 174.473 328.328 174.709 328.613 174.883C332.9 177.452 336.975 175.608 341.253 173.796C348.922 170.545 356.49 167.066 363.957 163.358C364.037 163.319 364.074 163.255 364.146 163.209L390.411 152.124C390.637 152.032 390.846 151.901 391.029 151.739C393.769 150.65 396.597 148.787 395.891 145.745Z" fill="#6C6CE5"/>
<path d="M363.267 216.477C363.196 216.446 363.123 216.42 363.048 216.399C351.316 214.739 339.403 218.834 327.375 217.861C314.138 216.788 301.11 213.818 287.805 213.435C266.067 212.948 244.638 218.637 226.005 229.842C222.96 237.688 218.68 244.996 213.325 251.489C221.567 249.777 230.131 250.538 237.942 253.677C238.342 253.837 238.729 254.017 239.108 254.208C261.072 239.108 287.364 238.785 313.656 244.878C334.546 249.719 362.335 244.812 365.922 219.229C365.965 218.866 365.926 218.498 365.809 218.151C365.692 217.804 365.5 217.488 365.246 217.225C364.992 216.961 364.682 216.758 364.34 216.628C363.998 216.499 363.631 216.448 363.267 216.477Z" fill="#2A8EEA"/>
<path d="M561.65 25.15C561.65 30.2034 557.553 34.3 552.5 34.3C547.447 34.3 543.35 30.2034 543.35 25.15C543.35 20.0966 547.447 16 552.5 16C557.553 16 561.65 20.0966 561.65 25.15Z" fill="#FECE2F"/>
<path d="M558.6 46.5C558.6 49.8689 555.869 52.6 552.5 52.6C549.131 52.6 546.4 49.8689 546.4 46.5C546.4 43.1311 549.131 40.4 552.5 40.4C555.869 40.4 558.6 43.1311 558.6 46.5Z" fill="#FECE2F"/>
<path d="M552.5 77C557.553 77 561.65 72.9034 561.65 67.85C561.65 62.7966 557.553 58.7 552.5 58.7C547.447 58.7 543.35 62.7966 543.35 67.85C543.35 72.9034 547.447 77 552.5 77Z" fill="#FECE2F"/>
<path d="M583 46.5C583 51.5534 578.903 55.65 573.85 55.65C568.797 55.65 564.7 51.5534 564.7 46.5C564.7 41.4466 568.797 37.35 573.85 37.35C578.903 37.35 583 41.4466 583 46.5Z" fill="#FECE2F"/>
<path d="M531.15 55.65C536.203 55.65 540.3 51.5534 540.3 46.5C540.3 41.4466 536.203 37.35 531.15 37.35C526.097 37.35 522 41.4466 522 46.5C522 51.5534 526.097 55.65 531.15 55.65Z" fill="#FECE2F"/>
</svg>
